<?xml version="1.0" encoding="UTF-8"?> <svg xmlns="http://www.w3.org/2000/svg" xmlns:xlink="http://www.w3.org/1999/xlink" viewBox="0 0 640 480"><defs><filter id="z"><feGaussianBlur stdDeviation="4.799788"></feGaussianBlur></filter><filter id="y"><feGaussianBlur stdDeviation="4.172418"></feGaussianBlur></filter><filter id="x" x="-.027719" y="-.11514" width="1.0554" height="1.2303"><feGaussianBlur stdDeviation="4.172418"></feGaussianBlur></filter><filter id="aa"><feGaussianBlur stdDeviation="1.126101"></feGaussianBlur></filter><linearGradient id="ac" x1=".85277" x2=".20235" y1=".33071" y2=".33071" gradientTransform="matrix(1.0301 0 0 1.0301 -1.481 -10.557)"><stop stop-color="#787878" offset="0"></stop><stop stop-color="#cbcbcb" offset=".5"></stop><stop stop-color="#787878" offset="1"></stop></linearGradient><linearGradient id="ab" x1=".87485" x2=".29604" y1=".58792" y2=".58792" gradientTransform="matrix(1.0301 0 0 1.0301 -1.481 -10.557)"><stop stop-color="#787878" offset="0"></stop><stop stop-color="#c7c7c7" offset=".62963"></stop><stop stop-color="#787878" offset="1"></stop></linearGradient><linearGradient id="ad" x1=".060887" x2=".50523" y1=".57332" y2=".57332" gradientTransform="matrix(1.0301 0 0 1.0301 -1.481 -10.557)"><stop stop-color="#787878" offset="0"></stop><stop stop-color="#fff" offset=".5"></stop><stop stop-color="#787878" offset="1"></stop></linearGradient><linearGradient id="ah" x1=".32905" x2=".32905" y1="-.018227" y2="-.018227" gradientTransform="matrix(1.0152 0 0 1.0152 3.4755 -27.252)"><stop offset="0"></stop><stop stop-color="#fff" offset="1"></stop></linearGradient><linearGradient id="ag" x1=".5" x2=".43451" y1=".73846" y2=".73846" xlink:href="#w"></linearGradient><linearGradient id="ae" x1=".51802" x2=".42508" y1=".93896" y2=".93896" gradientTransform="matrix(1.0152 0 0 1.0152 3.4755 -27.252)"><stop stop-color="#787878" offset="0"></stop><stop stop-color="#b3b3b3" offset=".5"></stop><stop stop-color="#787878" offset="1"></stop></linearGradient><linearGradient id="af" x1="-1.0937" x2="-1.0616" y1="-1.3" y2="-1.3" gradientTransform="matrix(.98473 .040832 -.040832 .98473 282.11 82.195)" xlink:href="#w"></linearGradient><linearGradient id="ai" x1=".1388" x2=".1388" y1="-.069983" y2="-.069983" gradientTransform="matrix(1.0152 0 0 1.0152 3.4755 -27.252)"><stop offset="0"></stop><stop stop-color="#fff" offset="1"></stop></linearGradient><linearGradient id="v"><stop stop-color="#fff" offset="0"></stop><stop stop-color="#787878" offset="1"></stop></linearGradient><linearGradient id="w"><stop stop-color="#ba9552" offset="0"></stop><stop stop-color="#fff" offset="1"></stop></linearGradient><radialGradient id="ap" cx="218.64" cy="176.66" r="35.147" gradientTransform="matrix(2.9752 1.2892 1.2535 -2.9456 -623.36 375.8)" gradientUnits="userSpaceOnUse"><stop stop-color="#a7a7a7" offset="0"></stop><stop offset="1"></stop></radialGradient><radialGradient id="ao" cx="81.015" cy="181.79" r="18.856" gradientTransform="matrix(1.0358 0 0 -2.1796 57.745 504.49)" gradientUnits="userSpaceOnUse"><stop stop-color="#fff" offset="0"></stop><stop stop-color="#d4a276" offset="1"></stop></radialGradient><radialGradient id="ak" cx="210.69" cy="186.11" r="4.1509" gradientTransform="matrix(3.5166 -.53782 -.75271 -5.2848 -322.02 1258.6)" gradientUnits="userSpaceOnUse" xlink:href="#v"></radialGradient><radialGradient id="aj" cx="210.8" cy="188.28" r="19.524" gradientTransform="matrix(-1.2499 -.49185 -.29724 .81105 598.13 111.87)" gradientUnits="userSpaceOnUse"><stop stop-color="#fff" offset="0"></stop><stop stop-color="#787878" offset="1"></stop></radialGradient><radialGradient id="an" cx="292.32" cy="333.43" r="96.293" gradientTransform="matrix(2.5993 .7747 .1841 -.62899 -438.23 103.28)" gradientUnits="userSpaceOnUse"><stop stop-color="#fff" offset="0"></stop><stop stop-color="#787878" offset="1"></stop></radialGradient><radialGradient id="am" cx="97.827" cy="235.66" r="91.435" gradientTransform="matrix(2.2528 .35945 .0642 -.40972 -70.263 138.07)" gradientUnits="userSpaceOnUse"><stop stop-color="#bbb" offset="0"></stop><stop stop-color="#787878" offset="1"></stop></radialGradient><radialGradient id="al" cx="216.97" cy="177.59" r="15.625" gradientTransform="matrix(-.30984 1.2761 1.6886 .44025 45.298 -192.24)" gradientUnits="userSpaceOnUse" xlink:href="#v"></radialGradient></defs><g stroke-linecap="round" stroke-linejoin="round"><g fill="#0f0" fill-rule="evenodd" stroke-width=".1"><path d="m39.852 390.67c1.7026-7.53 2.433-12.544 8.1436-21.867-3.7334 15.514-3.4431 15.018 0.62232 18.847 9.0304-7.7846 4.6007-19.418 2.8181-29.516 5.8922 5.4336 9.6794 14.168 11.329 25.229 4.5151-6.5323 7.1887-16.565 5.6574-21.874 3.2427 6.2119 6.2216 10.552 5.6656 24.64 0.11307-5.8535 4.3729-30.039 9.1253-37.094-1.6384 12.054 1.5145 20.241 6.1581 30.158 3.7292-7.2819 2.4085-16.202 1.8788-23.816 2.472 5.9823 5.0853 22.778 5.0853 22.778 0.22286-12.996 3.5573-24.609 7.9952-35.731-3.6487 14.084-3.0698 26.974 2.2601 35.71 5.3325-15.524 0.69211-16.927 8.4331-33.514-3.2432 11.499-0.85031 22.78 5.7704 30.18 5.8481-5.9505 9.2848-25.994 7.0417-32.978 4.5533 2.3307 5.1764 11.286 3.369 24.748 3.6881-10.567 1.704-8.8725 8.758-17.756-3.5979 8.4119-1.2348 13.986 4.3437 17.968 6.5089-4.9782 5.8953-24.898 4.6686-33.076 3.346 9.1053 9.6342 16.998 8.6945 34.333-0.67943-12.884 2.9412-23.338 8.5885-30.286-1.375 4.8806-8.9808 24.182 8.3841 24.378 9.7269-2.4292 3.1642-39.778 3.1642-39.778 3.9042 7.212 5.21 9.9095 8.2229 35.84 5.4118-1.4399 8.4263-7.9378 7.1359-25.971 6.0385 5.9542-0.85246 17.746 10.945 13.412-5.7252-6.2798 6.3284-30.738 6.3284-30.738-2.7163 13.892-7.4354 29.597 5.4243 29.382-3.8622-2.9953 3.2926-2.6803 8.1181-19.291 0.54373 14.197-5.3501 20.765 3.6667 21.718-0.71728-10.125 2.5455-21.503 2.1405-33.539 4.1499 8.9027-5.1676 19.948 7.6108 29.812 5.1271-14.536 0.24884-32.824-1.3314-49.875 9.0825 16.992 9.9319 28.836 12.18 48.971 4.9306-11.1 4.5071-22.836 16.718-29.804-8.0569 13.498-10.262 22.264-4.0616 30.708l23.505 22.149" filter="url(#x)"></path><path d="m375.49 403.68c-8.6628-7.8613-25.502-48.38-22.922-58.337-6.1871 3.6271-6.3424 16.212-2.7343 34.913-6.0087-14.496-3.0957-12.283-13.681-24.154 5.71 11.487 10.32 23.655 2.8301 29.675-9.5098-6.4473-10.246-34.38-9.1836-45.926-3.9547 13.014-12.125 24.566-9.4215 48.756-0.080627-18.09-8.6268-44.117-17.088-53.391 2.3156 6.7218 14.062 41.454-10.23 43.118-13.81-2.6216-0.9173-44.663-0.9173-44.663-4.8876 10.408-20.939 1.6067-23.08 38.145-7.6909-1.5823-8.8083-9.1236-8.446-34.47-7.976 8.8184-5.37 27.674-22.231 22.553 7.5114-9.2489-11.32-42.52-11.32-42.52 4.9147 19.228 12.778 40.835-5.2403 41.563 5.1664-4.5022-16.172-17.962-24.257-40.828 0.37569 19.917 9.1519 28.638-3.3937 30.694 0.19331-14.231-7.3584-17.793-7.7553-34.674-5.0962 12.794 8.8311 27.51-8.2666 42.34-8.3409-19.937-1.2901-30.618-0.44333-54.612-11.353 24.513-21.164 14.467-22.699 42.831-7.7906-15.143-8.1377-31.605-25.789-40.381 12.359 18.249 16.147 30.344 8.1444 42.66l-31.13 32.887" filter="url(#y)"></path><path d="m8.8874 459.48c1.4864-6.5737 19.192-78.567 24.177-86.705-3.2593 13.544-0.5467 13.016 3.0024 16.36 7.8835-6.796 2.7035-11.7 1.1473-20.516 5.1439 4.7436 8.4501 12.369 9.8902 22.025 3.9417-5.7027 6.2758-14.461 4.9389-19.096 2.8309 5.423 12.402 16.829 11.917 29.128 0.098713-5.1101 3.1611-23.599 7.31-29.758-1.4303 10.523 0.176 27.413 4.2298 36.071 3.2556-6.3571 2.1026-14.145 1.6402-20.792 2.1581 5.2226 4.4395 19.885 4.4395 19.885 0.19455-11.346 3.1056-21.484 6.9799-31.194-3.1853 12.295-2.68 23.548 1.9731 31.175 4.6553-13.552 0.60422-14.778 7.3622-29.258-2.8313 10.038 3.1964 10.697 8.9764 17.157 5.1054-5.1948 8.1057-14.67 6.1475-20.767 3.975 2.0347 4.519 9.8524 2.9412 21.606 3.2197-9.2248 1.4876-7.7457 7.6458-15.501-3.141 7.3436-1.078 4.3327 3.7921 7.8087 5.6823-4.346 5.1466-21.736 4.0757-28.875 2.9211 7.949 8.4107 14.839 7.5903 29.973-0.59314-11.248 2.5677-20.374 7.4978-26.44-1.2004 4.2608-7.2672 26.269 7.8924 26.44 8.4916-2.1207 2.7623-34.727 2.7623-34.727 3.4084 6.2961 6.8407 7.0896 9.471 29.727 4.7246-1.257 7.3562-6.9298 6.2297-22.673 5.2716 5.1981-0.7442 24.088 9.5552 20.305-4.9982-5.4823 5.5247-26.834 5.5247-26.834-2.3713 12.127-6.4912 15.838 4.7355 15.65-3.3717-2.615 2.8744-2.3399 7.0871-16.841 0.47469 12.394-4.6707 18.128 3.201 18.96-0.62619-8.8393 3.9415-11.322 3.5879-21.83 3.6228 7.7721-4.5114 17.415 6.6443 26.026 4.476-12.69 0.21726-28.655-1.1623-43.541 7.9291 14.834 8.6706 15.174 10.633 32.752 4.3044-9.6903 3.9347-19.936 14.595-26.019-7.0337 11.783-8.9584 19.437-3.5458 26.808l20.52 19.336"></path></g><path d="m146.34 54.378c-3.3399 0.42643-4.5132 0.88956-0.53934 0.50761 14.349 1.804 24.979 13.945 32.392 25.476 13.029 20.155 20.397 44.154 18.618 68.273 0.62268 25.641-0.088409 51.838 1.5277 77.126 4.4099 0.76225 0.35979-5.5005 1.5546-7.741-0.80901-31.851 0.030762-63.817-2.1574-95.589-4.9086-25.459-16.855-52.326-40.228-65.545-3.505-1.6989-7.2955-2.7702-11.167-2.5063z" fill="#fff" filter="url(#aa)" opacity=".587" stroke-width=".207"></path><path d="m372.73 448.36c-30.534-12.658-27.383-92.839-21.47-102.85-4.0957 11.145-17.044 8.99-15.894 30.209 0.83164-15.771-3.6001-28.566-10.513-37.071 1.6831 5.9741 10.189 36.832-11.066 37.071-11.906-2.9735 1.4272-38.973 1.4272-38.973-4.7789 8.8278-14.892 7.2335-18.58 38.973-6.6243-1.7625-10.504-16.925-8.925-38.999-7.3914 7.2882-2.0484 32.449-16.489 27.145 7.0079-7.6867-7.7462-37.624-7.7462-37.624 3.3249 17.004 8.4449 25.724-7.296 25.461 4.7274-3.6664-4.0303-3.2808-9.9368-23.613-0.66554 17.378 6.5488 25.417-4.4882 26.583 0.87799-12.394-5.5264-15.875-5.0306-30.608-5.0796 10.897 6.3254 24.418-9.316 36.491-6.2757-17.792 0.40212-26.75 2.3364-47.621-11.117 20.799-12.864 21.869-15.616 46.515-6.0352-13.587-5.5169-27.952-20.464-36.481 9.862 16.522 12.56 27.252 4.9715 37.588l-41.244 59.935" fill="#0f0" fill-rule="evenodd" stroke-width=".1"></path><g stroke="#000"><g stroke-width=".21"><path d="m216.81 203.78l8.4538 15.08 2.5512 153.44-8.8012 8.99-2.2037-177.51z" fill="url(#ai)"></path><path d="m194.4 189l22.417 9.7738 2.2037 177.51-20.264-8.99-4.3559-178.3z" fill="url(#ah)"></path></g><g stroke-width=".103"><path d="m286.94 155.88l-7.8802 5.643-30.377-12.822 8.1334-5.3066 30.124 12.486z" fill="url(#aj)"></path><path d="m278.81 161.5l0.4775 25.079 7.5555-5.622 0.1004-25.18-8.1334 5.7228z" fill="url(#ak)"></path><path d="m279.29 186.58l-0.382-25.289-30.224-12.694 0.1004 24.972 30.506 13.011z" fill="url(#al)"></path></g><path d="m279.53 155.29c0.002869 0.85526-1.0434 1.2705-1.9612 1.26-4.4649-0.051224-7.1633-1.7016-8.59-3.4142-0.40082-0.48119-1.0904-0.86005-1.059-2.1948 0.48636-20.688-1.1943-54.971-0.8237-80.558 0.12787-9.0358-4.2634-4.1716-27.182-17.599-4.8083-2.8171-4.8164-3.7396-4.8245-8.4947-0.018005-9.8904-0.12433-13.659-1.1767-31.378-0.11093-1.8681 1.267-4.2626 4.1185-3.5768 13.797 3.3187 13.996 3.3691 35.354 8.6768 3.3412 0.83028 5.1504 1.2459 5.3218 7.1795 0.9465 32.773 0.7117 97.045 0.82211 130.1z" fill="#f00" stroke-width=".213"></path><g transform="rotate(179.85 267.44 165.74)"><g stroke-width=".213"><path d="m80.755 56.541c-4.5863-2.8487-8.1754-6.8631-7.0671-10.994 1.6482-4.923 5.7272-5.0681 10.08-3.6212 6.9354 2.3054 6.2114 11.69-5.9769 7.4776-1.8229-0.65677-3.2662-0.72235-3.8887-0.4263 1.0907 4.005 4.1316 5.5233 6.8526 7.5636z" fill="url(#ab)"></path><path d="m79.158 58.35c-4.8248-3.3374-8.3724-5.9801-7.3538-15.532 0 0-6.8516 7.1822-6.9047 7.9446-0.45685 6.5651 2.4334 11.678 7.9083 14.714 1.7933-2.4853 3.765-4.8939 6.3502-7.1268z" fill="url(#ac)"></path><path d="m79.179 58.297l1.8034-1.5434c-3.3522-2.7304-6.1385-4.2413-7.1716-8.334-1.7512-11.077 16.557-7.4413 13.81 0.32214 0.69513-0.6647 1.708-3.6262 1.0664-4.8609-3.0685-5.6065-7.4512-4.6304-9.8517-4.7582-4.6605-0.10258-5.3649 1.702-7.3919 4.135-0.3971 5.2476-0.12176 10.6 7.7357 15.039z" fill="#787878"></path><path d="m261.33 59.891l-0.4695-3.7885-100.13-19.498c-37.081-1.6-81.936 10.299-91.386 35.554l-0.0118 5.1847c12.291-31.046 67.651-40.067 91.372-37.154l100.62 19.702z" fill="url(#ad)"></path><path d="m261.3 59.838l-67.652 54.194-94.145-10.678c-75.653-23.395 7.8101-71.08 61.098-63.149l100.7 19.633z" fill="url(#am)"></path></g><path d="m258.39 61.449l-1.3127 101.72c-6.4526 50.709-56.67 111.04-70.233 42.584l6.2405-91.902 65.305-52.398z" fill="url(#ap)" stroke-width=".21"></path><g fill-rule="evenodd" stroke-width="1.971"><path d="m152.53 114.3c6.9722-13.562 8.3951-32.062 4.0561-40.796-5.2911-10.65-16.646-4.5103-24.609 11.38-9.5543 19.066-11.438 44.695-5.2349 56.561 7.3405 14.043 22.717 5.5623 33.429-16.21" fill="url(#ao)"></path><path d="m161.7 122.42c-7.8067 16.951-19.316 29.145-29.044 25.304l164.91 30.285c9.4873 1.946 19.186-12.093 23.69-22.649l-159.55-32.941z" fill="url(#af)"></path></g><g fill-rule="evenodd" stroke-width="1.971"><path d="m152.4 67.792l160.76 40.08c8.3748 4.0066 8.7155 31.831-5.4218 47.401-57-10.931-167.48-14.662-171-32.794 5.3468 13.086 35.773-28.934 15.661-54.686z" fill="url(#ag)"></path><path d="m142.45 95.478c-4.7841 8.9595-9.8106 19.08-7.0126 25.137 3.562 7.7117 11.491 3.5446 17.098-7.3627 6.9722-13.562 8.3951-32.062 4.0561-40.796-5.2911-10.65-16.646-4.5103-24.609 11.38-9.5543 19.066-11.438 44.695-5.2349 56.561 7.3405 14.043 22.717 5.5623 33.429-16.21 0.48529-0.98636 0.95923-1.9942 1.4211-3.0202" fill="none"></path></g><g stroke-width=".21"><path d="m188.13 157.56l3.1152 0.4914-2.9664 47.406c9.8204 65.894 61.308 10.66 68.831-43.354l1.2714-101.47c2.8544-7.6131 14.008-1.4247 10.786 1.215l-1.5156 102.26c-9.615 72.328-74.612 115.3-82.916 44.148l3.3945-50.698z"></path><path d="m267.66 164.02c-3.3737 32.934-27.905 72.125-47.092 78.089l192.38 51.785c33.196 8.2951 56.736-30.79 56.969-56.496l-202.26-73.377z" fill="url(#ae)"></path><path d="m470.02 237.37l-12.078-86.836-188.93-88.524-1.2999 102.08 202.31 73.28z" fill="url(#an)"></path></g></g></g><g fill="#008000" fill-rule="evenodd" stroke-width=".1"><path d="m16.159 446.77c2.6478-11.71 11.004-85.154 19.885-99.651-5.8058 24.126-3.3125 32.541 3.0095 38.497 14.043-12.106 7.1545-30.197 4.3824-45.9 9.1628 8.4497 15.052 12.032 17.617 29.233 7.0213-10.158 11.179-25.76 8.7977-34.016 5.0427 9.66 12.738 22.638 11.873 44.546 0.17583-9.1027 6.8002-56.714 14.191-67.685-2.5479 18.744 0.31352 48.831 7.5346 64.253 5.7992-11.324 3.7454-25.196 2.9216-37.036 3.8442 9.303 7.9081 35.422 7.9081 35.422 0.34656-20.21 5.5319-48.269 12.433-65.565-5.674 21.901-4.7739 41.946 3.5147 55.532 8.2924-24.14 1.0763-26.323 13.114-52.116-5.0435 17.881-1.3223 35.425 8.9734 46.932 9.0943-9.2534 14.439-26.131 10.95-36.992 7.0807 3.6244 8.0498 17.55 5.2391 38.486 5.7353-16.432 2.6498-13.797 13.619-27.612-5.5951 13.081-1.9201 21.75 6.7548 27.942 10.122-7.7414 9.1676-53.718 7.26-66.435 5.2034 14.159 14.982 26.433 13.521 53.39-1.0566-20.036 4.5738-46.292 13.356-57.097-2.1383 7.5897-12.945 61.793 14.059 62.097 15.126-3.7776 4.9206-61.859 4.9206-61.859 6.0713 11.215 12.185 21.535 16.87 61.859 8.4158-2.2392 13.104 2.6561 11.097-25.387 9.3904 9.2593-1.3256 42.908 17.021 36.17-8.9032-9.7656 9.8411-47.8 9.8411-47.8-4.224 21.602-11.563 56.026 8.4353 55.691-6.006-4.658 5.1202-4.1681 12.624-30 0.84552 22.078-8.3199 32.291 5.7019 33.772-1.1154-15.745 7.021-10.168 6.3912-28.885 6.4534 13.844-8.0361 31.021 11.835 46.359 7.973-22.604 9.8685-25.727 7.411-52.243 14.124 26.424 5.9634 29.527 9.4595 60.837 7.6674-17.261 7.0089-25.512 25.998-36.347-12.529 20.99-15.958 34.623-6.3161 47.753l36.553 34.444" filter="url(#z)" opacity=".6"></path><path d="m5.8821 451.6c11.614-36.62 25.989-50.716 50.788-78.107-5.2669 20.772-26.254 35.404-13.731 46.596-2.2603-13.784 1.872-34.821 14.985-50.186-5.1904 15.752-3.3908 40.672 6.5345 50.212 10.132-24.4 11.831-45.76 4.8424-74.998 7.8789 14.337 11.736 34.791 10.824 51.159 2.5656-11.346 3.6661-28.902 12.271-42.949-5.6256 23.377-3.2097 31.531 2.9161 37.302 13.607-11.73 6.9325-29.259 4.2464-44.475 8.8785 8.1874 14.585 21.348 17.071 38.015 6.8034-9.843 10.832-24.96 8.5247-32.96 4.8862 9.3602 12.342 26.781 11.505 48.008 0.17036-8.8202 6.5892-60.264 13.75-70.895-2.4688 18.162 0.3038 47.315 7.3008 62.259 5.6193-10.972 3.6291-24.414 2.8309-35.887 3.7249 9.0142 7.6626 34.322 7.6626 34.322 0.33582-19.582 5.3603-37.081 12.047-53.841-5.4979 21.222-4.6257 40.644 3.4056 53.809 8.0351-23.391 1.0429-40.506 12.707-65.499-4.8869 17.326-1.2812 34.325 8.695 45.476 8.8121-8.9663 13.991-25.32 10.611-35.844 6.861 3.5119 7.7999 17.005 5.0765 37.292 5.5573-15.922 2.5676-28.369 13.197-41.755-5.4214 12.675-1.8605 21.075 6.5452 27.075 9.8077-7.5012 9.5396-34.89 7.6912-47.213 5.0419 13.72 13.861 22.987 12.444 49.108-1.0238-19.414 4.4318-20.166 12.941-30.635-2.0719 7.3542-12.543 45.341 13.622 45.635 14.657-3.6604 4.7678-59.939 4.7678-59.939 5.8829 10.867 11.807 20.867 16.347 59.939 8.1547-2.1697 12.697 3.0392 10.752-24.134 9.0989 8.972-1.2845 41.577 16.492 35.047-8.6269-9.4625 9.5357-46.316 9.5357-46.316-4.093 20.932-11.204 59.597 8.1735 59.273-5.8196-4.5135 4.9613-4.0387 12.232-29.068 0.81928 21.392-13.313 31.19 5.525 47.724 10.735 19.536 21.902 63.171 21.291 45.035" opacity=".633"></path></g></g></svg> 