<?xml version="1.0" encoding="UTF-8"?> <!-- Generator: Adobe Illustrator 16.0.0, SVG Export Plug-In . SVG Version: 6.00 Build 0) --> <svg xmlns="http://www.w3.org/2000/svg" xmlns:xlink="http://www.w3.org/1999/xlink" version="1.1" id="bg" x="0px" y="0px" width="335.986px" height="235.19px" viewBox="0 0 335.986 235.19" xml:space="preserve"> <g> <g> <rect fill="#EAECF0" width="335.986" height="235.19"></rect> </g> </g> <rect x="214.511" y="194.784" fill="#FFFFFF" stroke="#34525C" stroke-width="2" stroke-linecap="round" stroke-linejoin="round" stroke-miterlimit="10" width="9.188" height="4.512"></rect> <path fill="#FFFFFF" stroke="#34525C" stroke-width="2" stroke-linecap="round" stroke-linejoin="round" stroke-miterlimit="10" d=" M176.976,180.529c9.196-9.196,24.105-9.198,33.301-0.002s9.197,24.107,0,33.303c-9.192,9.194-24.105,9.194-33.301-0.001 C167.78,204.633,167.781,189.723,176.976,180.529z"></path> <path fill="#84DBFF" d="M180.464,184.018c7.271-7.271,19.057-7.271,26.324-0.003c7.27,7.27,7.27,19.056-0.001,26.326 c-7.268,7.268-19.054,7.268-26.323-0.002C173.196,203.071,173.196,191.285,180.464,184.018z"></path> <path fill="#FFFFFF" stroke="#34525C" stroke-width="2" stroke-linecap="round" stroke-linejoin="round" stroke-miterlimit="10" d=" M223.186,192.2v9.674c-0.001,0.255,0.183,0.439,0.439,0.439l38.7-0.003c0.256,0.003,0.44-0.183,0.439-0.439l0.001-9.673 c-0.001-0.254-0.185-0.438-0.439-0.439l-38.702,0.003C223.398,191.759,223.197,191.961,223.186,192.2z"></path> <rect x="133.194" y="181.177" transform="matrix(1 0.0012 -0.0012 1 0.226 -0.1747)" fill="#34525C" width="15.758" height="2.061"></rect> <rect x="133.133" y="176.548" fill="#34525C" width="23.252" height="2.061"></rect> <g> <rect x="20.493" y="76.661" transform="matrix(-0.0088 -1 1 -0.0088 -55.9414 107.5866)" fill="#FFFFFF" stroke="#34525C" stroke-width="2" stroke-miterlimit="10" width="9.711" height="9.713"></rect> </g> <g> <rect x="91.429" y="49.755" transform="matrix(-0.0088 -1 1 -0.0088 42.528 151.376)" fill="#FFFFFF" stroke="#34525C" stroke-width="2" stroke-miterlimit="10" width="9.711" height="9.713"></rect> </g> <g> <rect x="235.049" y="85.844" transform="matrix(-0.0088 -1 1 -0.0088 151.3306 331.3977)" fill="#FFFFFF" stroke="#34525C" stroke-width="2" stroke-miterlimit="10" width="9.711" height="9.713"></rect> </g> <g> <rect x="130.112" y="208.733" transform="matrix(-0.0088 -1 1 -0.0088 -77.4194 350.4424)" fill="#FFFFFF" stroke="#34525C" stroke-width="2" stroke-miterlimit="10" width="9.711" height="9.713"></rect> </g> <rect x="230.215" y="45.256" fill="#34525C" width="23.812" height="2.061"></rect> <rect x="230.215" y="54.611" fill="#34525C" width="17.344" height="2.061"></rect> <rect x="220.494" y="49.885" fill="#34525C" width="37.666" height="2.061"></rect> <rect x="92.896" y="15.86" fill="#34525C" width="35.502" height="2.061"></rect> <rect x="86.985" y="20.896" fill="#34525C" width="20.719" height="2.061"></rect> <rect x="209.872" y="17.879" fill="#34525C" width="20.719" height="2.061"></rect> <rect x="219.06" y="22.855" fill="#34525C" width="20.719" height="2.061"></rect> <rect x="239.889" y="212.97" fill="#34525C" width="20.719" height="2.061"></rect> <rect x="249.076" y="217.946" fill="#34525C" width="20.719" height="2.061"></rect> <g> <g> <polygon fill="#FFFFFF" stroke="#34525C" stroke-width="2" stroke-linecap="round" stroke-linejoin="round" stroke-miterlimit="10" points=" 26.56,171.441 33.381,165.508 32.224,158.1 38.058,155.23 43.234,161.151 51.722,161.363 56.579,154.017 63.131,157.391 60.968,166.46 67.517,171.834 75.585,171.001 77.927,176.857 72.213,179.551 70.698,189.757 78.08,195.206 75.044,201.614 67.051,199.622 61.188,205.969 63.02,214.03 56.3,216.722 51.192,209.978 41.745,209.358 38.163,216.392 31.405,213.504 33.67,206.185 27.326,199.329 18.847,200.132 16.365,193.925 23.881,189.723 23.453,180.68 16.25,176.171 19.176,169.997 "></polygon> <path fill="#84DBFF" d="M35.287,190.866c2.657,6.819,10.362,10.208,17.188,7.546c6.832-2.664,10.208-10.37,7.551-17.189 c-2.664-6.831-10.364-10.215-17.201-7.555C36.001,176.33,32.618,184.035,35.287,190.866z"></path> </g> </g> <g> <g> <polygon fill="#FFFFFF" stroke="#34525C" stroke-width="2" stroke-linecap="round" stroke-linejoin="round" stroke-miterlimit="10" points=" 85.272,182.282 88.298,177.668 86.395,173.509 89.346,170.857 93.366,173.48 98.388,172.202 100.024,167.082 104.434,167.98 104.662,173.667 109.398,175.74 114,173.917 116.345,176.97 113.434,179.497 114.229,185.743 119.468,187.725 118.745,191.99 113.718,192.143 111.324,196.839 113.732,201.272 110.23,203.965 106.114,200.848 100.462,202.046 99.521,206.771 95.074,206.191 95.193,201.519 90.333,198.538 85.484,200.412 83,197.177 86.721,193.465 84.976,188.224 79.997,186.765 80.696,182.656 "></polygon> <path fill="#84DBFF" d="M93.61,192.251c2.689,3.566,7.777,4.283,11.346,1.591c3.574-2.695,4.282-7.78,1.592-11.347 c-2.693-3.572-7.775-4.287-11.352-1.594C91.627,183.594,90.912,188.68,93.61,192.251z"></path> </g> </g> <text transform="matrix(1 0 0 1 299.1436 186.0391)" fill="#221E20" font-family="'Roboto-Medium'" font-size="16.3727">35</text> <text transform="matrix(1 0 0 1 299.1436 212.2441)" fill="#221E20" font-family="'Roboto-Medium'" font-size="16.3727">83</text> <path fill-rule="evenodd" clip-rule="evenodd" fill="#FFFFFF" stroke="#3D3437" stroke-width="2" stroke-linecap="round" stroke-linejoin="round" stroke-miterlimit="10" d=" M279.913,14.811h26.798c5.19,0,10.437,4.244,10.437,9.436v71.145c0,5.191-5.246,9.436-10.437,9.436h-26.798 c-5.188,0-10.435-4.244-10.435-9.436V24.246C269.479,19.055,274.725,14.811,279.913,14.811z"></path> <path fill-rule="evenodd" clip-rule="evenodd" fill="#84DBFF" d="M273.627,22.359h39.372c0.072,0,0.132,0.055,0.132,0.125v71.23 c0,0.07-0.06,0.125-0.132,0.125h-39.372c-0.072,0-0.132-0.055-0.132-0.125v-71.23C273.495,22.414,273.555,22.359,273.627,22.359z"></path> <path fill-rule="evenodd" clip-rule="evenodd" fill="#FFFFFF" stroke="#3D3437" stroke-width="2" stroke-linecap="round" stroke-linejoin="round" stroke-miterlimit="10" d=" M285.016,18.091h16.592c0.448,0,0.817,0.224,0.817,0.497l0,0c0,0.273-0.369,0.497-0.817,0.497h-16.592 c-0.449,0-0.818-0.224-0.818-0.497l0,0C284.197,18.314,284.566,18.091,285.016,18.091z"></path> <path fill-rule="evenodd" clip-rule="evenodd" fill="#FFFFFF" stroke="#3D3437" stroke-width="2" stroke-linecap="round" stroke-linejoin="round" stroke-miterlimit="10" d=" M293.312,101.853c1.449,0,2.631-1.182,2.631-2.63s-1.182-2.633-2.631-2.633c-1.448,0-2.631,1.185-2.631,2.633 S291.864,101.853,293.312,101.853z"></path> <path fill-rule="evenodd" clip-rule="evenodd" fill="#FFFFFF" stroke="#3D3437" stroke-width="2" stroke-linecap="round" stroke-linejoin="round" stroke-miterlimit="10" d=" M81.4,108.604c10.247,0,18.554,7.169,18.554,16.008c0,5.311-2.997,10.013-7.605,12.922l2.614,6.611l-6.404-4.761 c-2.203,0.796-4.62,1.235-7.158,1.235c-10.246,0-18.555-7.168-18.555-16.008C62.846,115.773,71.154,108.604,81.4,108.604z"></path> <path fill-rule="evenodd" clip-rule="evenodd" fill="#FFFFFF" stroke="#3D3437" stroke-width="2" stroke-linecap="round" stroke-linejoin="round" stroke-miterlimit="10" d=" M70.953,77.57c-13.189,0-23.883,9.224-23.883,20.607c0,6.832,3.855,12.885,9.791,16.631l-3.364,8.512l8.244-6.132 c2.835,1.027,5.946,1.593,9.212,1.593c13.19,0,23.883-9.226,23.883-20.604C94.836,86.794,84.144,77.57,70.953,77.57z"></path> <g> <path fill-rule="evenodd" clip-rule="evenodd" fill="#84DBFF" d="M60.508,101.816c1.781,0,3.236-1.451,3.236-3.236 c0-1.781-1.455-3.239-3.236-3.239c-1.783,0-3.238,1.458-3.238,3.239C57.27,100.365,58.725,101.816,60.508,101.816z"></path> <path fill-rule="evenodd" clip-rule="evenodd" fill="#84DBFF" d="M70.953,101.816c1.783,0,3.237-1.451,3.237-3.236 c0-1.781-1.454-3.239-3.237-3.239c-1.782,0-3.239,1.458-3.239,3.239C67.714,100.365,69.171,101.816,70.953,101.816z"></path> <path fill-rule="evenodd" clip-rule="evenodd" fill="#84DBFF" d="M81.396,101.816c1.785,0,3.239-1.451,3.239-3.236 c0-1.781-1.454-3.239-3.239-3.239c-1.782,0-3.232,1.458-3.232,3.239C78.164,100.365,79.614,101.816,81.396,101.816z"></path> </g> <path id="XMLID_83_" fill="#FFFFFF" stroke="#34525C" stroke-width="2" stroke-linecap="round" stroke-linejoin="round" stroke-miterlimit="10" d=" M43.886,134.591c-5.097-1.981-9.908-2.266-7.928-5.946c1.982-3.681,3.398-3.964,2.831-9.343c-0.564-5.38-6.039-5.38-6.039-5.38 s-5.474,0-6.038,5.38c-0.568,5.379,0.849,5.662,2.832,9.343c1.979,3.681-2.832,3.965-7.928,5.946 c-5.095,1.979-3.113,6.513-3.113,6.513h13.335h0.912h14.253C47.003,141.104,48.983,136.57,43.886,134.591z"></path> <path id="XMLID_107_" fill="#FFFFFF" stroke="#34525C" stroke-width="2" stroke-linecap="round" stroke-linejoin="round" stroke-miterlimit="10" d=" M69.076,32.811c-0.43-4.799-4.459-8.563-9.374-8.563c-1.844,0-3.562,0.54-5.012,1.457c-2.896-4.553-7.982-7.574-13.779-7.574 c-8.763,0-15.909,6.907-16.305,15.572c-4.138,1.869-7.023,6.026-7.023,10.864c0,6.577,5.336,11.908,11.913,11.908h37.64 c6.58,0,11.914-5.331,11.914-11.908C79.05,38.647,74.731,33.738,69.076,32.811z"></path> <g id="XMLID_95_"> <polygon id="XMLID_100_" fill="#84DBFF" points="58.753,45.823 48.316,27.745 37.881,45.823 44.529,45.823 44.529,51.596 52.108,51.592 52.104,45.823 "></polygon> </g> <path fill="#FFFFFF" stroke="#3D3437" stroke-width="2" stroke-linecap="round" stroke-linejoin="round" stroke-miterlimit="10" d=" M290.291,44.01h-3.918c-0.242,0-0.459,0.219-0.545,0.545l-7.705,29.681c-0.066,0.254-0.039,0.543,0.068,0.769 c0.109,0.226,0.287,0.359,0.479,0.359h3.916c0.244,0,0.461-0.216,0.547-0.541l7.703-29.682c0.068-0.258,0.041-0.547-0.066-0.771 C290.66,44.145,290.481,44.01,290.291,44.01z"></path> <path fill="#FFFFFF" stroke="#3D3437" stroke-width="2" stroke-linecap="round" stroke-linejoin="round" stroke-miterlimit="10" d=" M307.584,57.864l-14.041-10.069c-0.18-0.13-0.395-0.119-0.565,0.035c-0.171,0.153-0.276,0.423-0.276,0.712v4.869 c0,0.326,0.133,0.625,0.338,0.763l8.46,5.629l-8.437,4.979c-0.221,0.126-0.361,0.433-0.361,0.772v4.85 c0,0.285,0.098,0.55,0.266,0.702c0.096,0.089,0.206,0.135,0.318,0.135c0.08,0,0.159-0.024,0.234-0.068l14.035-8.894 c0.213-0.134,0.35-0.434,0.35-0.765v-2.903C307.904,58.295,307.779,58.004,307.584,57.864z"></path> <polygon fill="#FFFFFF" stroke="#34525C" stroke-width="2" stroke-linecap="round" stroke-linejoin="round" stroke-miterlimit="10" points=" 239.904,131.832 265.29,117.177 290.675,131.832 290.675,161.144 265.29,175.799 239.904,161.144 "></polygon> <polyline fill="#FFFFFF" stroke="#34525C" stroke-width="2" stroke-linecap="round" stroke-linejoin="round" stroke-miterlimit="10" points=" 240.796,132.358 265.29,146.816 265.29,175.799 240.571,161.528 "></polyline> <polyline fill="#84DBFF" stroke="#34525C" stroke-width="2" stroke-miterlimit="10" points="289.127,132.746 265.29,146.816 265.29,175.799 289.332,161.919 "></polyline> <g> <path fill="#FFFFFF" stroke="#34525C" stroke-width="2" stroke-linecap="round" stroke-linejoin="round" stroke-miterlimit="10" d=" M163.445,55.102L117.801,90.69v62.979c0,3.572,2.889,6.461,6.454,6.461h86.401c3.565,0,6.458-2.889,6.458-6.461V90.69 l-39.972-35.589H163.445z"></path> <polyline fill="#84DBFF" stroke="#000000" stroke-width="2" stroke-miterlimit="10" points="180.606,100.708 180.606,128.669 153.995,128.669 153.995,100.708 "></polyline> <path fill="#FFFFFF" stroke="#3D3437" stroke-width="2" stroke-linecap="round" stroke-linejoin="round" stroke-miterlimit="10" d=" M191.878,43.058c-12.986-12.99-34.047-12.99-47.038,0c-12.994,12.981-13.243,34.048-0.255,47.038 c2.874,2.865,4.976,5.003,9.41,6.603v14.16h26.611v-14.16c4.433-1.6,7.597-3.737,10.463-6.603 C204.062,77.105,204.868,56.044,191.878,43.058z"></path> <path fill="none" stroke="#3D3437" stroke-width="2" stroke-linecap="round" stroke-linejoin="round" stroke-miterlimit="10" d=" M144.447,61.608c1.021-10.041,8.98-18.361,18.998-19.735"></path> <path fill="none" stroke="#3D3437" stroke-width="2" stroke-linecap="round" stroke-linejoin="round" stroke-miterlimit="10" d=" M178.673,121.566"></path> <path fill="none" stroke="#3D3437" stroke-width="2" stroke-linecap="round" stroke-linejoin="round" stroke-miterlimit="10" d=" M155.927,121.566"></path> <path fill="none" stroke="#3D3437" stroke-width="2" stroke-linecap="round" stroke-linejoin="round" stroke-miterlimit="10" d=" M178.673,113.922"></path> <path fill="none" stroke="#3D3437" stroke-width="2" stroke-linecap="round" stroke-linejoin="round" stroke-miterlimit="10" d=" M155.927,113.922"></path> <path fill="#FFFFFF" stroke="#34525C" stroke-width="2" stroke-linecap="round" stroke-linejoin="round" stroke-miterlimit="10" d=" M158.281,122.556l-40.047,33.399c0.92,2.433,3.26,4.175,6.021,4.175h86.401c2.759,0,5.101-1.742,6.016-4.175l-39.319-33.399 H158.281z"></path> <g> <path fill="#FFFFFF" stroke="#34525C" stroke-width="2" stroke-linecap="round" stroke-linejoin="round" stroke-miterlimit="10" d=" M177.143,122.727l39.529,33.229c-0.119,0.32-0.271,0.631-0.438,0.928l0.011,0.015c0.55-0.952,0.87-2.05,0.87-3.229V90.7 L177.143,122.727z"></path> <path fill="#FFFFFF" stroke="#34525C" stroke-width="2" stroke-linecap="round" stroke-linejoin="round" stroke-miterlimit="10" d=" M118.234,155.955l39.857-33.229L117.801,90.7v62.969c0,1.179,0.318,2.276,0.862,3.229l0.016-0.015 C118.511,156.586,118.359,156.275,118.234,155.955z"></path> </g> <line fill="none" stroke="#3D3437" stroke-width="2" stroke-linecap="round" stroke-linejoin="round" stroke-miterlimit="10" x1="167.457" y1="14.992" x2="167.457" y2="26.407"></line> <line fill="none" stroke="#3D3437" stroke-width="2" stroke-linecap="round" stroke-linejoin="round" stroke-miterlimit="10" x1="141.905" y1="22.351" x2="147.612" y2="32.236"></line> <line fill="none" stroke="#3D3437" stroke-width="2" stroke-linecap="round" stroke-linejoin="round" stroke-miterlimit="10" x1="123.455" y1="41.501" x2="133.341" y2="47.207"></line> <line fill="none" stroke="#3D3437" stroke-width="2" stroke-linecap="round" stroke-linejoin="round" stroke-miterlimit="10" x1="117.053" y1="67.31" x2="128.466" y2="67.31"></line> <line fill="none" stroke="#3D3437" stroke-width="2" stroke-linecap="round" stroke-linejoin="round" stroke-miterlimit="10" x1="219.772" y1="65.398" x2="208.358" y2="65.398"></line> <line fill="none" stroke="#3D3437" stroke-width="2" stroke-linecap="round" stroke-linejoin="round" stroke-miterlimit="10" x1="212.416" y1="39.848" x2="202.529" y2="45.555"></line> <line fill="none" stroke="#3D3437" stroke-width="2" stroke-linecap="round" stroke-linejoin="round" stroke-miterlimit="10" x1="193.268" y1="21.397" x2="187.56" y2="31.283"></line> </g> <polyline fill="none" stroke="#3D3437" stroke-width="2" stroke-linecap="round" stroke-linejoin="round" stroke-miterlimit="10" points=" 280.974,152.977 280.974,206.771 290.675,206.771 "></polyline> <polyline fill="none" stroke="#3D3437" stroke-width="2" stroke-linecap="round" stroke-linejoin="round" stroke-miterlimit="10" points=" 263.766,131.573 304.721,131.573 304.721,161.897 "></polyline> </svg> 