<?xml version="1.0" encoding="UTF-8"?> <svg xmlns="http://www.w3.org/2000/svg" xmlns:xlink="http://www.w3.org/1999/xlink" xmlns:v="https://vecta.io/nano" width="800" height="500"><style><![CDATA[.B{fill:#efc100}.C{fill:#fdd400}.D{fill:#ec8659}.E{fill:#fedb59}.F{fill:#fa6b5c}.G{fill:#f0c7ad}.H{fill:#4b4b4b}.I{fill:#b89030}.J{fill:#cbaf46}.K{fill:#f7f8f8}.L{fill:#91b9ff}.M{fill:#6e6e6e}.N{fill:#eda76a}.O{fill:#d75d4c}.P{fill:#bb5140}.Q{fill:#5678b5}.R{fill:#af7c44}.S{fill:#f0c6ad}.T{fill:#3cde7a}.U{fill:#fcb794}]]></style><path stroke="#000" fill="#cce4fc" d="M-19.333-15.067h824v520h-824z"></path><g stroke="null"><path fill="#77d9dc" d="M734.798 321.511l-39.699 13.49-39.991-13.49 39.699-13.49z"></path><path fill="#4eafac" d="M734.798 321.511l-.366 13.661-39.772 13.49.439-13.661z"></path><path fill="#58bfbf" d="M695.099 335.001l-.439 13.661-39.992-13.49.439-13.661z"></path><path d="M188.003 284.841l-39.699 13.49-39.992-13.49 39.772-13.49z" class="F"></path><path d="M188.003 284.841l-.366 40.299-39.699 13.49.366-40.299z" class="O"></path><path d="M148.304 298.331l-.366 40.299-39.992-13.49.366-40.299z" class="P"></path><path d="M192.097 416.623l-59.585 20.192-59.878-20.192 59.512-20.192z" class="E"></path><path d="M192.097 416.623l-.585 10.117-59.585 20.192.585-10.117z" class="I"></path><path d="M132.512 436.815l-.585 10.117-59.878-20.192.585-10.117z" class="J"></path><path d="M371.73 429.217l-65.727 22.284-123.776-41.708 65.727-22.327z" class="K"></path><path d="M371.73 429.217v4.354l-65.727 22.284v-4.354z" class="Q"></path><path d="M306.003 451.501v4.354l-123.776-41.708v-4.354zm19.448-29.285l-2.559.854-83.566-28.175 2.632-.854zm-39.188-3.458l-2.559.854-58.781-19.808 2.559-.854zm44.379 1.665l-2.559.896-83.566-28.175 2.559-.854zm-49.496.085l-2.559.854-58.781-19.808 2.559-.896zm39.114 3.458l-2.559.854-83.566-28.132 2.632-.896z" class="L"></path><path d="M416.474 63.496l.073 26.596-164.207 55.411-.146-26.596z" class="K"></path><g class="F"><path d="M252.34 145.502l-4.972-1.665-.146-26.596 4.972 1.665z"></path><path d="M252.194 118.907l-4.972-1.665 164.28-55.454 4.972 1.708zM403.46 82.535v2.305l-138.106 46.532v-2.305zm0 5.55v2.305l-138.033 46.532v-2.305zm-.073-15.112v4.013l-138.033 46.532v-4.013z"></path></g><path d="M416.474 24.35l.073 26.596-164.207 55.454-.146-26.596z" class="K"></path><g class="F"><path d="M252.34 106.399l-4.972-1.708-.146-26.596 4.972 1.708z"></path><path d="M252.194 79.803l-4.972-1.708 164.28-55.411 4.972 1.665zM403.46 43.389v2.305L265.354 92.226v-2.305zm0 5.592v2.305L265.427 97.818v-2.305zm-.073-15.154v4.013L265.354 84.371v-3.97z"></path></g><path d="M202.479 210.518s-4.972-.299-8.627-1.067-7.53-.598-8.335 0 3.656 4.739 10.455 5.635l6.799.896v1.238s2.924.47 6.141 0 4.24-2.305 4.24-2.305l.877-2.134-11.552-2.263z" fill="#325863"></path><path d="M367.124 186.783l-.585 121.75-61.705-20.79.585-121.793z" class="P"></path><path d="M435.117 163.688l-.585 121.793-67.993 23.052.585-121.75z" class="O"></path><path d="M517.001 191.308l-.585 121.75-81.884-27.577.585-121.793z" class="P"></path><path d="M572.053 214.36l-61.34 20.832-.585 121.75 61.34-20.79 67.993-23.095.585-121.75z" class="O"></path><path d="M332.616 245.566l-.585 121.793 129.333-43.885.585-121.75z" class="I"></path><path d="M640.046 191.308l-67.993 23.052-61.34 20.832-61.705-20.832 67.993-23.052-81.884-27.62-67.993 23.095-61.705-20.832 61.34-20.79 67.993-23.052 68.432 23.052 68.432 23.095z" class="F"></path><path fill="#ed1c24" d="M510.713 235.193l-.585 121.75-61.705-20.79.585-121.793z"></path><path d="M461.949 201.724l-129.333 43.842-61.705-20.79-68.432-23.052 61.34-20.832 75.158 25.358 67.993-23.095z" class="E"></path><path d="M270.91 224.777l-68.432-23.052-.585 121.75 68.432 23.052 61.705 20.832.585-121.793z" class="J"></path><path d="M510.713 235.193l-61.267 20.79-61.705-20.79 61.267-20.832z" class="L"></path><path d="M510.713 235.193l-.585 121.75-61.267 20.79.585-121.75z" class="Q"></path><path fill="#668ed6" d="M449.447 255.983l-.585 121.75-61.705-20.79.585-121.75z"></path><path d="M253.144 300.636s2.34-1.836 3.582-3.287 1.974-2.177 2.486-2.049.512 1.025.512 1.025l2.486-1.409 1.755-1.195s1.389-.213 2.851 1.665.731 3.885 0 4.269-7.457 3.714-11.332 3.799-2.34-2.818-2.34-2.818zm-18.497-4.354s3.363-1.153 5.995-1.708 3.948-.896 3.729-1.195-1.682-.427-1.682-.427l2.705-1.281 2.266-.854s.512-.768-2.486-1.878-6.507-.896-7.238-.512-7.238 3.885-7.823 6.105 4.533 1.75 4.533 1.75z" class="G"></path><path d="M207.011 372.055s1.608.299 4.972-.427 4.972-1.153 7.092-.939.877 1.537 0 2.177c0 0-5.849 3.714-14.403 4.653 0 0 .366.427-.658 1.025s-10.309 1.58-10.82-1.11c.804.085 12.941-3.244 13.818-5.379zm-43.135-4.909s1.901-.811 3.363-.726 1.024 1.665 1.024 3.031-3.582 3.842-5.63 4.739-4.46 3.116-4.46 3.116-3.948 2.903-7.677 1.238c-.073 0 13.087-8.282 13.379-11.398z" fill="#7a4b20"></path><path d="M208.62 350.881c-6.214-4.568-15.134-8.623-15.134-8.623l-3.144-.512s-9.285-.768-12.063 1.025c-2.778-2.732-8.7-5.592-13.014-3.757 0 0-4.972 11.398-7.238 14.813s-8.115 16.862-8.554 17.844c-.512 1.025-1.755 3.543-1.389 4.952s2.34 1.964 2.34 1.964 3.217-.085 6.726-2.305c3.509-2.263 6.726-5.934 6.726-5.934s1.901-5.464 3.509-7.641c1.462-1.964 9.797-11.953 11.917-15.88 5.045 4.824 18.497 12.252 18.497 12.252-3.729 7.257-4.606 18.442-4.606 18.442 9.943 1.323 15.28-3.33 15.28-3.33s.731-5.806 1.974-8.581 4.094-8.41 4.094-8.41.292-1.75-5.922-6.318z" class="H"></path><path d="M218.929 301.063l16.962-4.696-4.24-4.781-13.818 3.33c0-.043-5.41 2.946 1.097 6.147z" class="M"></path><path d="M200.651 298.587s-3.144-.043-6.214 1.067-17.766 7.641-24.638 22.156-4.606 17.118-4.606 17.118 5.118 2.604 9.724 4.739c4.606 2.092 6.434 2.391 6.434 2.391s8.115-1.878 12.063-3.842c0 0-.512-9.648 1.389-12.551s7.238-7.044 10.967-12.423 2.705-10.075 2.705-10.075-7.604-5.293-7.823-8.581z" class="H"></path><path d="M206.134 309.259s-3.948.085-5.849 2.903.731 4.653 3.948 5.08 19.74-2.263 33.412-6.105 20.032-7.385 20.032-7.385l-4.094-4.653s-28.075 9.178-47.449 10.16z" class="M"></path><path d="M222.511 293.336v7.044s-1.024 4.013-9.139 3.885l-4.898 2.903s-6.58-2.006-7.165-5.336 7.53-8.282 7.53-8.282 10.674-2.988 13.672-.213z" class="G"></path><path d="M201.309 301.874c-2.486-1.622-3.217-4.909-2.924-7.172s2.705-6.147 9.724-7.172 11.332 1.451 12.575 2.433c1.243 1.025 3.875 1.281 3.875 1.281.219.47.219 1.793-2.12 2.049s-5.703 1.708-5.703 1.708-1.17.598-2.047 1.153c0 0-1.243 1.025-.95 2.092 0 0-4.314 3.799-12.429 3.629z" fill="#4c3829"></path><path d="M672.142 345.801l-35.166 11.697v-4.184l35.824-11.697zm-30.853-55.752l-35.166 11.697v-4.141l35.824-11.74zm11.405 18.57l-35.166 11.697v-4.141l35.824-11.74zM681.5 361.17l-35.093 11.697v-4.184l35.824-11.74zm-65.361-121.708l-35.166 11.697v-4.141l35.824-11.74zm8.7 16.99l-35.093 11.697v-4.141l35.824-11.74zm39.553 71.761l-35.166 11.74v-4.184l35.824-11.74z" class="N"></path><path fill="#f7b07c" d="M605.465 204.072l-4.679-1.921-6.58 2.263 4.679 1.878z"></path><path d="M594.206 204.414l88.172 164.611 4.46.896-76.839-149.584-11.113-14.045z" class="N"></path><g class="R"><path d="M686.837 369.921l-87.952-163.629 6.58-2.22 87.952 163.629z"></path><path d="M621.403 238.736l-40.43 13.49v-4.141l35.824-11.74zm8.773 16.991l-40.43 13.49v-4.141l35.824-11.74z"></path></g><path d="M632.443 272.333l-35.093 11.74v-4.184l35.824-11.74z" class="N"></path><path d="M637.78 271.65l-40.43 13.49v-4.184l35.824-11.74zm8.773 17.716l-40.43 13.49v-4.184l35.824-11.74zm11.479 18.57l-40.503 13.49v-4.184l35.824-11.74zm11.697 19.594l-40.503 13.49v-4.184l35.824-11.74zm7.677 17.546l-40.43 13.49v-4.141l35.824-11.74zm9.431 15.368l-40.43 13.49v-4.141l35.824-11.74z" class="R"></path><path fill="#f7b07c" d="M566.716 216.538l-4.679-1.921-6.58 2.263 4.679 1.878z"></path><path d="M555.457 216.879l88.098 164.611 4.533.939-76.839-149.627-11.113-14.045z" class="N"></path><path d="M648.088 382.429l-87.952-163.671 6.58-2.22 87.952 163.671z" class="R"></path><path d="M648.966 324.158s3.875.982 4.606 2.263.366 2.903-1.097 3.543-5.337.854-8.262 1.921-5.483 3.116-7.896 3.415c-2.413.342-7.165-.768-6.068-2.134 1.097-1.409 7.311-4.269 7.311-4.269l11.405-4.739zm22.591 23.991s.219 1.494 0 3.202-2.047 2.134-5.849 1.622c-3.875-.555-3.656-2.775-7.896-3.757s-6.58-.213-7.896-1.067.585-1.921 4.021-2.689 9.87 0 9.87 0l7.75 2.689z" fill="#de600c"></path><path d="M626.009 295.257c8.408 0 25.296 1.708 25.296 1.708l12.283 4.482 15.426-1.494s-.95 6.66-3.656 11.654c-2.778 5.037-1.828 12.978-1.462 14.984.366 2.049.219 16.179-2.413 21.515 0 0-4.606 1.281-8.042 0s-4.021-2.134-4.021-2.134.585-12.124 0-15.752c-.439-2.818-3.436-11.91-4.314-18.186-9.212.085-18.497-4.098-18.497-4.098l9.87 11.441c1.682 1.921 3.948 4.909 3.948 4.909s-6.58 4.098-13.745 4.653c0 0-7.896-10.502-12.283-15.112s-10.455-10.929-10.309-13.917c.219-2.946 3.509-4.653 11.917-4.653z" fill="#0f5b78"></path><path d="M640.704 267.808l-1.755-1.067s-5.995-.299-8.115 0-8.627 1.451-8.773 3.372 1.755 1.025 5.045 0 4.021-.299 4.314 0c.219.299 1.535 1.836 0 2.604s-2.047.47-2.705 1.537 1.974.342 4.533-1.153c2.632-1.451 5.703-2.689 5.703-2.689l1.755-2.604z" class="S"></path><path d="M653.06 264.606s-12.136.982-14.33 1.921v4.184s11.259.342 14.33 1.281c3.071.982 5.264-3.714 5.264-3.714l-5.264-3.671z" class="T"></path><path d="M654.303 255.257s-5.264 1.75-6.361 3.074c-1.097 1.281 0 5.635 1.682 6.275s1.243 3.372 1.316 5.293c0 0 5.63.982 9.724 0 4.167-.982 4.972-4.184 4.972-4.184l-11.332-10.459z" class="S"></path><path d="M667.902 264.179s6.58.854 10.089 2.775 2.778 8.239 1.097 10.502-.95 20.448 0 22.497c0 0-2.924 4.269-9.358 5.678s-13.745 1.708-19.228 0-6.068-4.269-6.068-4.269 1.316-7.3.731-11.91-6.068-13.063.585-16.82c6.58-3.757 11.552-4.909 11.552-4.909s7.238-.256 10.601-3.543z" class="T"></path><path d="M603.491 279.291l-1.097-2.348s-1.097-2.134-2.924-2.903-1.097.171-3.509 1.025c-2.413.811-6.068 1.238-8.408.598s-3.144 0-2.047 1.708 2.047 6.019 16.889 3.842l1.097-1.921z" class="S"></path><path d="M644.945 275.748s-1.462-1.622-6.799 0-9.504 6.446-17.985 5.678c-8.408-.768-17.766-4.482-17.766-4.482s-5.337 2.476-1.682 5.336c0 0 7.311 6.233 21.495 6.745 14.11.555 29.317-7.812 22.737-13.276z" class="T"></path><path d="M653.206 257.946s-1.17-2.775 3.363-4.269 9.285 2.263 11.844 3.415c2.559 1.195 3.875 5.464 2.047 7.385s-3.875 2.988-8.262 3.202-6.946-2.689-6.799-4.397c.146-1.665-2.193-5.336-2.193-5.336zM237.645 149.387l-2.193-1.964s-1.682 1.58-3.363-.854c-1.682-2.391 1.389-3.372 3.363-4.696 1.974-1.281 12.794-5.208 17.547-3.757s7.53 4.568 7.238 7.001-1.097 7.3-1.097 7.3l-5.556 2.433-4.167-.64-11.771-4.824z" fill="#4c3829"></path><g class="H"><path d="M198.896 180.166l28.294 4.824 13.818-7.812-3.071-4.397 3.071-2.263-13.818-1.793z"></path><path d="M227.19 152.461l-28.294 11.526v16.179l28.294-11.441z"></path></g><path fill="#4382e9" d="M224.558 155.065l-22.957 9.392v13.106l22.957-9.306z"></path><path d="M245.468 180.935s-19.521 4.397-27.051 2.946c0 0-6.653 0-10.309 3.586s-5.264 10.587-5.264 12.85c0 .299 0 .768-.073 1.323l15.719-5.336c.146-2.006 1.097-2.006 1.097-2.006s16.45 7.215 29.098 9.306l4.314-21.003-7.53-1.665z" fill="#325863"></path><path d="M235.452 147.423s2.193 6.83 5.264 9.264 9.724.64 9.724.64v2.604l8.627-1.964v-5.55s-6.653 1.281-9.212-.64c-2.486-1.964-3.875-6.19-6.141-5.037-2.193 1.153-1.682 2.134-1.682 2.134s-4.387.512-6.58-1.451zm2.485 24.205l-3.656-1.153s-5.264-.982-7.092-.64-6.288.982-4.314 1.793 2.778 0 4.314 0 1.024 1.793 2.998 2.177 3.582 1.067 5.264 0c1.682-1.025 2.486-2.177 2.486-2.177zm-22.225 10.118c-2.12 0-3.436-1.494-4.24-2.092a5.64 5.64 0 0 0-1.243-.128c-.512.213-.877.726-.804.939.146.427-.146 1.067-.512 1.067s-1.682-.171-1.682-.171c-1.024-.171-2.34-.47-3.144-.768-1.389-.555-2.486.256-2.486.256.366 3.372 3.436 3.799 3.436 3.799h0c.658.213 1.535.427 2.705.64 5.556 1.025 11.405-.683 11.405-.683v-2.263c0 .085-1.828-.171-3.436-.598z" class="G"></path><g fill="#4382e9"><path d="M241.008 170.518h-6.726v4.525l3.363 2.134z"></path><path d="M253.802 157.968s-7.238 1.793-10.601 5.208-5.264 8.453-5.264 8.453l-6.361 8.794h-16.523l-1.097 5.848 13.891 1.622c6.068.64 12.502-.47 13.379-2.134.804-1.622 2.193-1.964 2.193-1.964s.804 5.037-1.974 8.111-2.778 5.208-2.778 5.208 3.071 5.848 13.379 7.001 23.688-4.397 23.688-4.397l1.097-20.149c.292-5.55-.585-17.887-3.656-20.662s-9.504-2.946-10.894-2.946c-1.243.085-6.288 1.366-8.481 2.006z"></path></g><path d="M651.159 416.538s-2.778.384-3.582 1.964 1.024 2.775 1.389 3.244c.439.47 1.901.598 2.193.854s1.974.726 2.998.598 2.486-2.903 1.462-4.696-4.46-1.964-4.46-1.964z" class="U"></path><path d="M692.686 426.356c1.535-4.055.439-12.807.439-12.807s-9.431-1.067-13.379 4.269c-4.825-1.494-20.617-.598-20.617-.598s-5.118 10.032-5.922 14.472c-.877 4.44 1.682 10.16 4.679 14.344 2.924 4.184 5.776 16.478 5.995 17.247s0 2.134 0 2.134l7.823-5.464s-.658-8.367-1.535-13.063l-1.828-9.52s4.387-8.111 7.53-10.672l1.462-1.409s.219-.171.512-.427c-.585 8.751 1.682 17.716 1.901 19.979.219 2.519 0 15.326 0 15.326l6.068 1.281s0-2.049 1.974-7.727 3.071-19.893 3.29-22.455c.073-2.519.073-.854 1.608-4.909z" class="H"></path><path d="M665.05 375.556l.146-.896s-1.755-2.006-3.436-2.86c-1.608-.896-7.019-2.732-8.115-3.031s-2.632-.811-4.021-.811-.439 1.281 2.12 2.22l3.802 1.58s.439 1.067-.512 1.067-1.389.64-1.389.64.439 1.58 1.389 2.092l3.436 1.793 8.115 2.391-1.535-4.184z" class="U"></path><path d="M667.902 390.028l-7.896-9.648-2.266-3.202 7.311-2.946 10.016 6.361c.439.171 5.483 6.275 5.483 6.617s-2.34 4.44-2.34 4.44l-10.309-1.622z" class="E"></path><path d="M669.437 387.338v-2.818c-3.656-1.964-2.851-4.781-2.851-4.781l-.073-1.366s2.559 2.177 4.24 2.988 2.193 3.671 7.53 4.098c0 0 2.413 4.098-2.924 3.501-5.264-.598-5.922-1.622-5.922-1.622z" class="U"></path><path d="M668.048 380.977c-.219-.256-1.535-2.604-1.535-2.604s-.877-.982 0-3.202c.877-2.177 4.972-3.799 9.358-3.586 4.46.213 12.136 2.006 11.478 6.788 0 0 2.705.982 3.948 4.696 1.17 3.671-1.535 5.891-4.24 7.385s-3.217 3.885-3.217 3.885-6.507-2.689-5.483-8.879c0 0-6.361.598-10.309-4.482z" fill="#432312"></path><g class="E"><path d="M690.127 386.356c9.431 3.586 1.901 9.392-.146 12.978s-1.389 8.196 1.682 9.989 3.144 4.61 3.144 4.61c-.877 1.281-9.066 8.666-23.103 7.684s-14.841-5.293-14.841-5.293.366-3.202 3.144-6.574 1.024-6.788.292-10.672c-.658-3.885 0-7.769 0-7.769 8.7-4.909 19.959-6.105 19.959-6.105l9.87 1.153z"></path><path d="M656.789 393.571s2.12-2.903 5.337-1.964 5.556 1.708 5.995 3.458-1.974 8.794-1.608 10.544c.292 1.75-2.047 5.037-3.509 6.66-1.535 1.622-7.092 7.769-7.092 7.769l-5.995-2.647s4.314-7.983 4.679-9.52c.439-1.494 2.193-8.154 2.193-8.154v-6.147z"></path></g><path d="M683.767 394.339s.512-2.391 3.217-3.885 5.483-3.671 4.24-7.385c-1.17-3.671-3.948-4.696-3.948-4.696s-6.653-.085-9.066 7.086c-.877 6.19 5.556 8.879 5.556 8.879z" fill="#35190d"></path><path d="M681.208 464.222s1.535-.128 2.924 1.153c1.389 1.323 1.17 2.134 1.17 2.134h2.266s.731-3.202-.512-4.354-5.483-.299-5.849 1.067z" fill="#343254"></path><path d="M682.158 459.953s-1.535-.342-2.559.256-.731 3.116-4.46 3.671-1.024 3.458-1.024 3.458 3.071.47 4.825 0 2.047-4.397 8.188-4.141c0 0 1.316-3.927-4.972-3.244z" class="M"></path><path d="M669.291 465.801s2.486 1.025 2.266 2.476 0 2.476 0 2.476h3.509s.439-4.568-.731-6.361c-1.243-1.75-5.045 1.409-5.045 1.409z" fill="#343254"></path><path d="M670.022 460.252s-2.413.598-3.948 2.561-2.851 3.116-4.825 3.244-3.802.256-5.118.896c0 0-.877 1.451.439 2.561 1.316 1.067 4.314 1.537 6.361 1.067 2.047-.427 4.314-3.714 7.092-4.781s4.46-.896 4.825-.811c.292.043 1.17-4.013-3.29-5.037l-1.535.299z" class="M"></path><path fill="#e5e5e5" d="M212.495 379.441l23.688 7.513-26.32 11.825-23.761-7.513z"></path><path d="M213.811 400.017l5.776-.811c2.047-.47 5.483-2.177 5.922-2.86.366-.683.877-3.458 0-4.055s-4.24 1.494-5.556 2.177l-1.316.683s1.024-1.793.804-2.263c-.292-.47-1.828-.512-3.582.598l-6.507 3.586 4.46 2.946z" fill="#e9b488"></path><path d="M182.592 472.461l1.243.47s2.924.256 6.214-.256c3.363-.47 7.092-.384 6.434 1.451s-5.995 3.287-8.335 3.885l-7.457 1.964c-.658.47-1.682 1.195-5.191.726s-3.656-1.323-3.656-1.323v-7.513l10.747.598zm-20.397-5.72s4.167-1.195 5.63-1.11c1.462.128 3.144 1.451 0 3.415s-4.387 2.775-5.63 4.269c-1.243 1.451-2.047 2.561-4.972 2.433-.877-.043-1.682-.171-2.413-.342-1.828-.427-2.998-1.451-2.998-2.604v-3.885l8.92-2.433 1.462.256z" fill="#031e6c"></path><path d="M190.927 425.716l.95 1.836s-.366 10.8-3.217 18.57c-2.924 7.769-4.752 26.852-4.752 26.852s-.658 1.836-4.606 1.964-7.896-1.323-7.896-1.323-.658-11.313 0-17.972 1.316-10.672-.292-14.088c0 0-1.389 7.428-3.436 11.91s-3.948 12.38-4.752 15.795c0 0-.804 2.177-3.948 2.177s-4.167-.384-6.214-1.836c0 0-1.024-10.8-.804-15.539s4.606-11.313 4.606-11.313-1.024-17.118-.658-21.729c.439-4.61 14.33-7.898 14.33-7.898l20.69 12.593z" fill="#a78264"></path><path d="M186.979 366.719v8.879s.219 3.031-1.901 3.501c-2.047.47-4.606 0-4.606 0v2.689s-5.995.726-10.82-1.323v-2.775l7.457-8.965c.073-.085 7.75-2.86 9.87-2.006z" fill="#e9b488"></path><path d="M180.472 381.746s6.653 1.451 10.601 3.629 3.509 6.318 3.948 9.605 1.243 5.464 1.243 5.464l12.063-4.013s6.872.854 5.191 4.739l-12.867 5.208c-4.606 1.836-8.7 3.415-11.625 3.415 0 0 1.024 3.415 2.924 7.513 1.901 4.141 1.243 9.819 1.243 9.819s-7.457 2.433-14.11 2.049-9.358-1.58-9.358-1.58l-3.144-7.3v6.062s-7.677-2.177-10.82-5.464c0 0 .439-6.788 1.243-9.093s-4.752-10.929-6.434-14.344 2.266-14.216 3.948-16.393 8.335-4.269 15.207-2.305l10.747 2.988z" fill="#656356"></path><path d="M186.979 366.719s.439-2.049-2.924-3.287c-3.363-1.195-9.358-1.323-13.525 0s-7.311 3.287-6.872 7.428 5.995 7.428 5.995 7.428 2.266.384 7.092-2.561c4.752-2.903 5.922-6.702 7.092-7.898 1.17-1.238 3.144-1.11 3.144-1.11z" fill="#713d23"></path><use xlink:href="#B" class="B"></use><use xlink:href="#C" class="C"></use><use xlink:href="#D" class="D"></use><use xlink:href="#B" y="-5.25" class="B"></use><use xlink:href="#C" y="-5.25" class="C"></use><use xlink:href="#D" y="-5.251" class="D"></use><path d="M386.571 377.733v.171.171c0 .043 0 .128-.073.171 0 .043 0 .085-.073.171 0 .043-.073.128-.073.171s-.073.085-.073.171c0 .043-.073.128-.073.171s-.073.085-.073.128c-.073.043-.073.128-.146.171s-.073.085-.146.128-.073.128-.146.171-.073.085-.146.128c-.073.085-.146.128-.219.213-.073.043-.073.085-.146.128-.073.085-.146.128-.292.213-.073.043-.073.085-.146.085-.146.128-.366.213-.512.342l-.146.085-.439.256-.219.128c-.073.043-.219.085-.292.128s-.146.085-.292.128c-.073.043-.219.085-.292.128s-.219.085-.292.128-.219.085-.366.128c-.073.043-.219.085-.292.128-.146.043-.219.085-.366.128s-.292.128-.439.171l-1.316.427c-.146.043-.219.085-.366.085l-1.243.299c-.073 0-.146.043-.146.043l-1.389.299-1.024.171-.804.128-1.097.128c-.292.043-.512.085-.804.085-.146 0-.219 0-.366.043l-1.389.128c-.146 0-.292 0-.439.043-.292 0-.512.043-.804.043-.439.043-.877.043-1.316.043h-.877-1.097-.877c-.366 0-.658 0-1.024-.043-.292 0-.585-.043-.95-.043s-.658-.043-.95-.085l-.877-.085-1.024-.085-.804-.085-1.243-.171-.804-.128c-.146-.043-.292-.043-.439-.085l-1.17-.256c-.146-.043-.219-.043-.366-.085l-1.024-.256-.512-.128-1.462-.427c-2.705-.896-4.46-2.006-5.264-3.159-.366-.512-.585-1.067-.585-1.622v3.244c0 1.708 1.974 3.458 5.849 4.781.439.171.95.299 1.462.427l.512.128.877.213c.073 0 .073.043.146.043.146.043.219.043.366.085l1.17.256c.146.043.292.043.439.085.073 0 .219.043.292.043.146.043.366.043.512.085l1.243.171c.146 0 .219.043.292.043.146 0 .366.043.512.043l1.024.085c.146 0 .292.043.439.043s.292 0 .439.043c.292.043.658.043.95.085.146 0 .292.043.439.043h.439l1.024.043h.512.439 1.097.512.292l1.316-.043h.512.292c.146 0 .292 0 .366-.043l1.389-.128c.146 0 .219 0 .366-.043h.146c.219-.043.439-.043.658-.085l1.097-.128.804-.128 1.024-.171c.073 0 .146-.043.219-.043l1.17-.256c.073 0 .146-.043.146-.043l1.243-.299c.146-.043.219-.085.366-.085l1.316-.427c.073-.043.146-.043.219-.085s.146-.043.219-.085c.146-.043.219-.085.366-.128.073-.043.219-.085.292-.128.146-.043.219-.085.366-.128.073-.043.219-.085.292-.128s.219-.085.292-.128.219-.085.292-.128.219-.085.292-.128c.073 0 .073-.043.146-.043l.073-.043.439-.256.146-.085c.146-.128.366-.213.512-.342.073-.043.073-.043.073-.085.073-.085.219-.128.292-.213.073-.043.073-.085.146-.128.073-.085.146-.128.219-.213l.073-.043c0-.043.073-.043.073-.085.073-.043.073-.128.146-.171s.073-.085.146-.128.073-.128.146-.171c0-.043.073-.043.073-.085s0-.043.073-.085c0-.043.073-.128.073-.171s.073-.085.073-.171c0-.043.073-.128.073-.171s0-.043.073-.085v-.043c0-.043 0-.128.073-.171v-.171-.171-.085-.085-3.244c.219-.043.146 0 .146.085z" class="B"></path><use xlink:href="#C" x="-4.167" y="-10.032" class="C"></use><use xlink:href="#D" x="-4.168" y="-10.032" class="D"></use><use xlink:href="#E" class="B"></use><use xlink:href="#F" class="C"></use><use xlink:href="#G" class="D"></use><use xlink:href="#E" x="10.967" y="-3.543" class="B"></use><use xlink:href="#C" x="1.462" y="-19.466" class="C"></use><path d="M378.895 367.317c1.682.555 1.974 1.451.146 2.348l1.974.64-1.901.64-1.828-.598c-1.316.427-2.924.726-4.021.811l-1.682-.939c1.243-.128 2.705-.384 3.948-.768 1.097-.384 1.389-.768.658-1.025s-1.828-.213-3.656.128c-2.705.47-5.045.598-6.946 0-1.682-.555-1.828-1.409-.219-2.22l-1.828-.598 1.901-.64 1.682.555c1.316-.427 2.486-.598 3.363-.726l1.608.939c-.731.085-2.047.256-3.363.726-1.243.427-1.097.726-.585.896.658.213 1.682.128 3.948-.213 3.144-.555 5.118-.512 6.799.043z" class="D"></path><use xlink:href="#E" x="5.411" y="-8.025" class="B"></use><path d="M380.796 358.779c7.75 2.604 7.75 6.83.073 9.477-7.677 2.604-20.252 2.604-28.001 0s-7.823-6.83-.073-9.477c7.75-2.604 20.252-2.604 28.001 0z" class="C"></path><path d="M373.338 362.834c1.682.555 1.974 1.451.146 2.348l1.974.64-1.901.64-1.828-.598c-1.316.427-2.924.726-4.021.811l-1.682-.939c1.243-.128 2.705-.384 3.948-.768 1.097-.384 1.389-.768.658-1.025s-1.828-.213-3.656.128c-2.705.47-5.045.598-6.946 0-1.682-.555-1.828-1.409-.219-2.22l-1.828-.598 1.901-.64 1.682.555c1.316-.427 2.486-.598 3.363-.726l1.608.939c-.731.085-2.047.256-3.363.726-1.243.427-1.097.726-.585.896.658.213 1.682.128 3.948-.213 3.071-.598 5.045-.555 6.799.043z" class="D"></path><use xlink:href="#E" x="56.076" y="18.997" class="B"></use><use xlink:href="#H" class="C"></use><path d="M424.004 389.857c1.682.555 1.974 1.451.146 2.348l1.974.64-1.901.64-1.828-.598c-1.316.427-2.924.726-4.021.811l-1.682-.939c1.243-.128 2.705-.384 3.948-.768 1.097-.384 1.389-.768.658-1.025s-1.828-.213-3.656.128c-2.705.47-5.045.598-6.946 0-1.682-.555-1.828-1.409-.219-2.22l-1.828-.598 1.901-.64 1.682.555c1.316-.427 2.486-.598 3.363-.726l1.608.939c-.731.085-2.047.256-3.363.726-1.243.427-1.097.726-.585.896.658.213 1.682.128 3.948-.213 3.071-.555 5.045-.512 6.799.043z" class="D"></path><use xlink:href="#E" x="25.15" y="32.572" class="B"></use><use xlink:href="#H" x="-30.925" y="13.533" class="C"></use><use xlink:href="#D" x="15.645" y="16.606" class="D"></use><use xlink:href="#E" x="60.828" y="15.667" class="B"></use><use xlink:href="#F" x="60.829" y="15.667" class="C"></use><use xlink:href="#G" x="60.828" y="15.667" class="D"></use><path d="M596.253 366.548l-7.019 2.391-.073 12.252 7.092-2.391zm-88.683 2.391l-7.092-2.391-.073 12.252 7.165 2.391zm20.471 20.619v-.171c0-.043 0-.128.073-.171 0-.043 0-.085.073-.171 0-.043.073-.128.073-.171s.073-.085.073-.171c0-.043.073-.128.073-.171s.073-.085.073-.171c.073-.043.073-.128.146-.171s.073-.085.146-.171c.073-.043.073-.128.146-.171s.073-.085.146-.128c.073-.085.146-.128.219-.213.073-.043.073-.085.146-.128.073-.085.219-.171.292-.213s.073-.085.146-.085c.146-.128.366-.256.512-.342l.146-.085.439-.256.219-.128c.073-.043.219-.085.292-.171.073-.043.219-.085.292-.128s.219-.085.292-.128.219-.085.292-.128c.146-.043.219-.085.366-.128.073-.043.219-.085.292-.128.146-.043.219-.085.366-.128s.292-.128.439-.171l.95-.299c.073-.043.219-.043.292-.085.219-.085.512-.128.731-.213.073-.043.146-.043.292-.085l1.024-.256c.073 0 .146-.043.219-.043l.877-.171c.146-.043.219-.043.366-.085s.366-.043.512-.085.292-.043.439-.085.366-.043.512-.085.292-.043.439-.043c.146-.043.366-.043.512-.085.146 0 .292-.043.439-.043.146-.043.366-.043.512-.043s.292-.043.439-.043l1.17-.128h.146l1.024-.085c.146 0 .292 0 .366-.043.219 0 .439-.043.658-.043h.439.658.366.585.439.658.366l1.974.043h.073l1.974.128h.146l.804.085c.146 0 .219.043.366.043.219.043.439.043.658.085.146 0 .219.043.292.043.219.043.439.043.658.085.146 0 .219.043.366.043l.585.085c.146 0 .219.043.366.043l.95.171c.073 0 .146 0 .146.043l1.097.213c.073 0 .146.043.219.043l1.389.342c.073 0 .073.043.146.043l1.316.427c4.021 1.366 6.068 3.159 6.068 4.909l.073-12.252c0-1.793-1.974-3.586-6.068-4.909l-1.316-.427c-.073 0-.073-.043-.146-.043l-1.389-.342c-.073 0-.073 0-.146-.043 0 0-.073 0-.073-.043l-1.097-.213c-.073 0-.146 0-.146-.043l-.95-.171c-.073 0-.073 0-.146-.043-.073 0-.146 0-.219-.043l-.585-.085c-.146 0-.219-.043-.366-.043-.219-.043-.439-.043-.658-.085-.073 0-.146-.043-.292-.043h-.073c-.219-.043-.439-.043-.658-.085-.146 0-.219-.043-.366-.043l-.804-.085h-.146l-1.974-.128-1.974-.043h-.292-.658-.439-.585-.146-.292-.658-.439c-.219 0-.439 0-.658.043h-.219-.146c-.366 0-.658.043-1.024.085h-.146l-1.17.128h-.073c-.073 0-.219.043-.292.043-.146 0-.366.043-.512.043s-.292.043-.439.043c-.146.043-.366.043-.512.085-.146 0-.292.043-.439.043-.146.043-.366.043-.512.085s-.292.043-.439.085-.366.043-.512.085c-.073 0-.146.043-.219.043s-.073 0-.146.043a2.14 2.14 0 0 1-.512.085l.073-10.075v-3.372l-.073 12.252v1.195c-.146.043-.219.043-.366.085-.073 0-.146.043-.219.043l-1.024.256c-.073.043-.146.043-.292.085l-.731.213c-.073.043-.219.043-.292.085l-.95.299c-.073.043-.146.043-.219.085s-.146.043-.219.085l-.366.128c-.147.043-.219.085-.292.128l-.366.128c-.073.043-.219.085-.292.128s-.219.085-.292.128-.219.085-.292.128-.219.085-.292.171c-.073 0-.073.043-.146.043l-.073.043-.439.256-.146.085c-.219.128-.366.256-.512.342-.073.043-.073.043-.073.085-.073.085-.219.171-.292.213s-.073.085-.146.128c-.073.085-.146.128-.219.213l-.073.043c0 .043-.073.043-.073.085-.073.043-.073.128-.146.171s-.073.085-.146.171c-.073.043-.073.128-.146.171 0 .043-.073.043-.073.085s0 .043-.073.085c0 .043-.073.128-.073.171s-.073.085-.073.171c0 .043-.073.128-.073.171s0 .043-.073.085v.043c0 .043 0 .128-.073.171v.171.171.085.085l-.073 12.252v-.213c-.146.213-.073.171-.073.085zm77.716-8.282h-10.016l-.439.64c0 .043-.073.085-.073.085a3.72 3.72 0 0 1-.512.598c0 .043-.073.085-.073.128l-.585.598v.043c-.219.213-.439.384-.658.555-.073.043-.073.085-.146.128-.219.171-.439.384-.731.555-.073.043-.146.085-.146.128l-.658.47c-.073.043-.146.128-.292.171-.219.171-.512.299-.731.47l-.219.128-1.024.598v4.824l-7.677 2.604-7.092-2.391-2.34.47-.731.128-1.243.213-.804.128-1.316.213-.804.128-1.535.213-.585.085-2.12.256-1.316.128c-.219 0-.439.043-.658.085l-1.974.171v3.372h-20.91v-3.372l-1.462-.128-1.462-.128-.804-.085-1.682-.171c-.146 0-.366-.043-.512-.043l-2.34-.299-.585-.085-1.682-.256-.731-.128-1.535-.256-.658-.128-2.12-.427-7.019 2.391-7.823-2.647v-4.781c-2.34-1.238-4.094-2.519-5.41-3.885-.439-.47-.804-.896-1.097-1.366h0 0 0-10.016l-.073-7.086-.073 12.252.073 7.086h9.504l-.073 7.641 14.841 4.995 7.019-2.391 2.12.427.658.128 1.462.256c.146 0 .219.043.366.085.146 0 .219.043.366.043l1.682.256.585.085 2.34.299h.073c.146 0 .292.043.439.043l1.682.171.804.085 1.462.128c.146 0 .292.043.366.043l1.097.085v3.372h20.983v-3.372l1.974-.171c.219 0 .439-.043.658-.085l1.243-.128h.073l2.12-.256.585-.085 1.535-.213.804-.128 1.316-.213.804-.128 1.243-.213c.146-.043.292-.043.439-.085.073 0 .219-.043.292-.043l2.34-.47 7.092 2.391 14.768-4.995.073-7.641h9.285v-12.295z" fill="#58bfbf"></path><path d="M595.741 381.276h10.016l-.073-7.086h-10.016c-1.243-1.836-3.363-3.629-6.507-5.251l7.019-2.391-14.768-4.995-7.019 2.391c-4.825-1.025-10.089-1.75-15.573-2.177v-3.372h-20.983v3.372c-5.41.384-10.674 1.11-15.499 2.177l-7.092-2.391-14.768 4.995 7.092 2.391c-3.071 1.622-5.191 3.415-6.361 5.251h-10.016l.073 7.086h10.016c1.243 1.836 3.363 3.629 6.507 5.251l-7.019 2.391 14.841 4.995 7.019-2.391c4.825 1.025 10.089 1.75 15.573 2.177v3.372h20.983v-3.372c5.41-.384 10.674-1.11 15.499-2.177l7.092 2.391 14.768-4.995-7.092-2.391c2.998-1.622 5.118-3.415 6.288-5.251zm-32.754 1.366c-7.969 2.689-20.91 2.689-28.952 0s-8.042-7.086-.073-9.776 20.91-2.689 28.952 0 8.042 7.086.073 9.776z" fill="#77d9dc"></path><path fill="#e8f9ff" d="M392.713 285.524l.366 62.668 138.033-46.574-.292-62.625z"></path><path fill="#73d9fe" d="M530.892 256.367l-138.033 46.574-.146-17.417 138.106-46.532z"></path><path d="M466.92 290.049v2.903l-58.927 19.893v-2.903zm0 6.574v2.946l-58.927 19.851v-2.903zm0 6.574v2.946l-58.927 19.851v-2.903zm0 6.617v2.903l-58.927 19.851v-2.903z" fill="#dcdcdb"></path><path d="M493.094 287.744l.146 15.624-4.898 1.622-.146-15.624z" class="F"></path><path fill="#fed22c" d="M501.428 273.357l.146 27.151-4.606 1.579-.146-27.193z"></path><path fill="#efa6ff" d="M511.664 274.04l.146 23.052-5.41 1.793-.146-23.01z"></path><path fill="#4367c7" d="M519.779 285.951v8.41l-4.898 1.665v-8.453z"></path><path d="M657.52 90.433l-.512 92.039-215.384-72.615.439-92.039z" class="K"></path><g class="E"><path d="M657.52 90.433l7.384-2.519-.439 92.039-7.457 2.519z"></path><path d="M442.062 17.818l7.457-2.519 215.384 72.615-7.384 2.519z"></path></g><g class="L"><path d="M499.747 106.313l-.073 11.313-13.233-4.482v-11.27zm5.483 13.191l.073-15.838 13.233 4.44-.073 15.88zm.073-24.333l13.306 4.482-.073 7.385-13.233-4.482zm32.023 27.663l-.073 7.471-13.233-4.482.073-7.471zm5.483 9.349l.073-15.88 13.233 4.482-.073 15.838zm.146-28.218l13.233 4.482-.073 11.227-13.233-4.44zm18.643 34.536l.073-15.838 13.233 4.482-.073 15.838zm18.79 6.361l.073-15.88 13.306 4.482-.146 15.838z"></path><path d="M561.672 121.553l.073-15.838 13.306 4.44-.073 15.88zm70.04 40.598v1.11L467.14 107.765v-1.11l19.301 6.489 13.233 4.482 5.556 1.878 13.233 4.482 5.556 1.836 13.233 4.482 5.556 1.878 13.233 4.44 5.556 1.878 13.233 4.482 5.556 1.878 13.233 4.44 5.556 1.878 13.306 4.482zm-51.178-42.86l13.233 4.482v8.581l-13.306-4.482zm-18.716-21.046l13.233 4.482v6.361l-13.306-4.482z"></path><path d="M599.177 151.18l.073-15.838 13.306 4.44-.073 15.881zm.074-27.577l13.306 4.482v10.63l-13.306-4.482z"></path><path d="M631.785 145.203v1.067l-19.228-6.489-13.306-4.44-5.483-1.878-13.306-4.482-5.556-1.836-13.233-4.482-5.556-1.878-13.233-4.482-24.346-8.196-13.233-4.44-38.091-12.85.073-1.11 38.018 12.85 13.233 4.482 24.346 8.196 13.233 4.44 5.556 1.878 13.306 4.482 5.483 1.836 13.306 4.482 5.483 1.878 13.306 4.482zm-62.51-69.37v2.177l-37.213-12.551v-2.177zm11.405 8.41v2.177l-48.692-16.393.073-2.177zm51.178 43.97v1.11l-56.807-19.168-13.306-4.44-94.386-31.846v-1.11l94.386 31.846 13.306 4.482zm.073-16.948v1.11L467.432 56.922v-1.11zM504.718 54.061v2.177l-37.213-12.551V41.51zm11.406 8.453v2.134l-48.692-16.393v-2.177zm-26.978-18.186v2.22l-21.641-7.257v-2.263zM553.703 66.1v2.22l-21.641-7.3V58.8z"></path></g><path d="M358.789 94.275s-9.431-3.671-17.693-8.837c0 0-5.556-.213-8.993-1.665-3.363-1.494-3.363-1.58-3.875-2.263s-1.389-2.476-1.389-2.476-4.094-.811-5.264-1.878 2.193-.982 4.752-.384 8.481 2.391 8.481 2.391 6.799 1.58 8.773 2.391c2.047.811 19.301 6.318 19.301 6.318l-4.094 6.403z" class="G"></path><g fill="#fefbf0"><path d="M382.477 156.303l-11.771-.683s-3.656-.342-3.948 1.622c-.219 2.006 1.901 3.458 7.823 5.208l7.823 2.006s2.998 1.195 5.703 1.195c2.778 0 4.825-.555 5.045-1.75v-10.331l-10.674 2.732z"></path><path d="M397.319 150.241l-11.771-.683s-3.656-.342-3.948 1.622c-.219 2.006 1.901 3.458 7.823 5.208l7.823 2.006s2.998 1.195 5.703 1.195 4.825-.555 5.045-1.75v-10.331l-10.674 2.732z"></path></g><path d="M374.654 106.996l-2.266-.256s-.658 9.136 1.17 15.838 2.998 12.892 5.776 20.576c2.778 7.641 1.389 14.088 1.389 14.088s-.219 2.561 4.387 3.372 8.262-1.75 8.262-1.75l-.95-23.778c-.219-2.689-2.559-7.257-2.559-7.257s3.217 3.757 4.387 7.812v16.948s.439 2.134 6.214 2.561c5.776.384 7.677-2.689 7.677-2.689v-14.386s-.877-4.61-1.828-8.794c-.804-3.501-.804-7.086.073-10.587 1.17-4.781 2.559-11.612 1.755-15.539-1.243-.213-33.485 3.842-33.485 3.842z" class="E"></path><path d="M377.213 58.202v5.123s-.95 4.696 4.167 4.696v4.013h12.648v-4.44l-10.82-10.459-6.068-.939.073 2.006z" class="G"></path><path d="M377.213 58.202s.658 0 1.608.811 1.608 2.433 1.608 2.433 1.389-.128 2.047 1.067l.658 1.195s3.948.683 5.045 2.134c1.17 1.494 2.998 2.006 5.776 1.75 0 0 2.778-.256 4.606-2.818s2.998-6.318-1.17-9.136-6.653-3.244-13.379-3.244c-6.58.043-9.139 4.226-6.799 5.806z" fill="#713d22"></path><path d="M385.548 70.966s-5.41.811-12.941 4.568c-7.604 3.757-13.818 12.209-13.818 12.209s-2.998 3.372-1.389 5.379c0 0 1.828 2.006 4.387 2.006s7.896-3.501 9.431-4.696l2.705-2.006s.439 4.013 0 6.702-1.608 11.569-1.608 11.569.073 6.062 4.752 8.581c4.679 2.561 12.283.128 18.278-1.323 5.995-1.494 10.089-3.885 11.478-5.251 1.389-1.323 1.828-8.068 0-11.825s-3.217-8.324-1.828-12.508 4.606-9.136 1.389-13.447-12.063-2.604-20.837.043z" class="H"></path><path d="M510.713 219.611l-61.267 20.832-61.705-20.832 61.267-20.79z" class="J"></path><path d="M510.713 219.611l-.585 9.989-61.267 20.832.585-9.989z" class="E"></path><path d="M449.447 240.444l-.585 9.989-61.705-20.832.585-9.989z" class="I"></path><path d="M452.737 215.94c2.632.896 6.799.896 9.431 0 2.559-.896 2.559-2.305 0-3.202-2.632-.896-6.799-.896-9.431 0s-2.632 2.305 0 3.202zm12.575 14.77l10.236-3.501-1.243-7.172h-32.827l.219-7.812-20.983-.171L399 219.398l50.008 16.82 16.304-5.507z" fill="#e8f9ff"></path><path d="M499.747 435.278l-48.619 16.521-48.911-16.521 48.619-16.478z" class="L"></path><path d="M499.747 435.278l-.439 8.239-48.619 16.521.439-8.239z" class="Q"></path><path fill="#668ed6" d="M451.128 451.799l-.439 8.239-48.911-16.521.439-8.239z"></path><path d="M545.807 428.704l-48.546 16.478-48.911-16.478 48.546-16.478z" class="E"></path><path d="M545.807 428.704l-.439 8.239-48.619 16.478.512-8.239z" class="I"></path><path d="M497.261 445.182l-.512 8.239-48.911-16.478.512-8.239z" class="J"></path></g><defs><path id="B" d="M390.739 387.722v.171.171c0 .043 0 .128-.073.171 0 .043 0 .085-.073.171 0 .043-.073.128-.073.171s-.073.085-.073.171c0 .043-.073.128-.073.171s-.073.085-.073.128c-.073.043-.073.128-.146.171s-.073.085-.146.128-.073.128-.146.171-.073.085-.146.128c-.073.085-.146.128-.219.213-.073.043-.073.085-.146.128-.073.085-.146.128-.292.213-.073.043-.073.085-.146.085-.146.128-.366.213-.512.342l-.146.085-.439.256-.219.128c-.073.043-.219.085-.292.128s-.146.085-.292.128c-.073.043-.219.085-.292.128s-.219.085-.292.128-.219.085-.366.128c-.073.043-.219.085-.292.128-.146.043-.219.085-.366.128s-.292.128-.439.171l-1.316.427c-.146.043-.219.085-.366.085l-1.243.299c-.073 0-.146.043-.146.043l-1.389.299-1.024.171-.804.128-1.097.128c-.292.043-.512.085-.804.085-.146 0-.219 0-.366.043l-1.389.128c-.146 0-.292 0-.439.043-.292 0-.512.043-.804.043-.439.043-.877.043-1.316.043h-.877-1.097-.877c-.366 0-.658 0-1.024-.043-.292 0-.585-.043-.95-.043s-.658-.043-.95-.085l-.877-.085-1.024-.085-.804-.085-1.243-.171-.804-.128c-.146-.043-.292-.043-.439-.085l-1.17-.256c-.146-.043-.219-.043-.366-.085l-1.024-.256-.512-.128-1.462-.427c-2.705-.896-4.46-2.006-5.264-3.159-.366-.512-.585-1.067-.585-1.622v3.244c0 1.708 1.974 3.458 5.849 4.781.439.171.95.299 1.462.427l.512.128.877.213c.073 0 .073.043.146.043.146.043.219.043.366.085l1.17.256c.146.043.292.043.439.085.073 0 .219.043.292.043.146.043.366.043.512.085l1.243.171c.146 0 .219.043.292.043.146 0 .366.043.512.043l1.024.085c.146 0 .292.043.439.043s.292 0 .439.043c.292.043.658.043.95.085.146 0 .292.043.439.043h.439l1.024.043h.512.439 1.097.512.292l1.316-.043h.512.292c.146 0 .292 0 .366-.043l1.389-.128c.146 0 .219 0 .366-.043h.146c.219-.043.439-.043.658-.085l1.097-.128.804-.128 1.024-.171c.073 0 .146-.043.219-.043l1.17-.256c.073 0 .146-.043.146-.043l1.243-.299c.146-.043.219-.085.366-.085l1.316-.427c.073-.043.146-.043.219-.085s.146-.043.219-.085c.146-.043.219-.085.366-.128.073-.043.219-.085.292-.128.146-.043.219-.085.366-.128.073-.043.219-.085.292-.128s.219-.085.292-.128.219-.085.292-.128.219-.085.292-.128c.073 0 .073-.043.146-.043l.073-.043.439-.256.146-.085c.146-.128.366-.213.512-.342.073-.043.073-.043.073-.085.073-.085.219-.128.292-.213.073-.043.073-.085.146-.128.073-.085.146-.128.219-.213l.073-.043c0-.043.073-.043.073-.085.073-.043.073-.128.146-.171s.073-.085.146-.128.073-.128.146-.171c0-.043.073-.043.073-.085s0-.043.073-.085c0-.043.073-.128.073-.171s.073-.085.073-.171c0-.043.073-.128.073-.171s0-.043.073-.085v-.043c0-.043 0-.128.073-.171v-.171-.171-.085-.085-3.244c.219-.043.146.043.146.085z"></path><path id="C" d="M384.963 382.77c7.75 2.604 7.75 6.83.073 9.477-7.677 2.604-20.252 2.604-28.001 0s-7.823-6.83-.073-9.477c7.677-2.604 20.252-2.604 28.001 0z"></path><path id="D" d="M377.433 386.826c1.682.555 1.974 1.451.146 2.348l1.974.64-1.901.64-1.828-.598c-1.316.427-2.924.726-4.021.811l-1.682-.939c1.243-.128 2.705-.384 3.948-.768 1.097-.384 1.389-.768.658-1.025s-1.828-.213-3.656.128c-2.705.47-5.045.598-6.946 0-1.682-.555-1.828-1.409-.219-2.22l-1.828-.598 1.901-.64 1.682.555c1.316-.427 2.486-.598 3.363-.726l1.608.939c-.731.085-2.047.256-3.363.726-1.243.427-1.097.726-.585.896.658.213 1.682.128 3.948-.213 3.144-.598 5.118-.555 6.799.043z"></path><path id="E" d="M381.234 371.799v.171.171c0 .043 0 .128-.073.171 0 .043 0 .085-.073.171 0 .043-.073.128-.073.171s-.073.085-.073.171c0 .043-.073.128-.073.171s-.073.085-.073.128c-.073.043-.073.128-.146.171s-.073.085-.146.128-.073.128-.146.171-.073.085-.146.128c-.073.085-.146.128-.219.213-.073.043-.073.085-.146.128-.073.085-.146.128-.292.213-.073.043-.073.085-.146.085-.146.128-.366.213-.512.342l-.146.085-.439.256-.219.128c-.073.043-.219.085-.292.128s-.146.085-.292.128c-.073.043-.219.085-.292.128s-.219.085-.292.128-.219.085-.366.128c-.073.043-.219.085-.292.128-.146.043-.219.085-.366.128s-.292.128-.439.171l-1.316.427c-.146.043-.219.085-.366.085l-1.243.299c-.073 0-.146.043-.146.043l-1.389.299-1.024.171-.804.128-1.097.128c-.292.043-.512.085-.804.085-.146 0-.219 0-.366.043l-1.389.128c-.146 0-.292 0-.439.043-.292 0-.512.043-.804.043-.439.043-.877.043-1.316.043h-.877-1.097-.877c-.366 0-.658 0-1.024-.043-.292 0-.585-.043-.95-.043s-.658-.043-.95-.085l-.877-.085-1.024-.085-.804-.085-1.243-.171-.804-.128c-.146-.043-.292-.043-.439-.085l-1.17-.256c-.146-.043-.219-.043-.366-.085l-1.024-.256-.512-.128-1.462-.427c-2.705-.896-4.46-2.006-5.264-3.159-.366-.512-.585-1.067-.585-1.622v3.244c0 1.708 1.974 3.458 5.849 4.781.439.171.95.299 1.462.427l.512.128.877.213c.073 0 .073.043.146.043.146.043.219.043.366.085l1.17.256c.146.043.292.043.439.085.073 0 .219.043.292.043.146.043.366.043.512.085l1.243.171c.146 0 .219.043.292.043.146 0 .366.043.512.043l1.024.085c.146 0 .292.043.439.043s.292 0 .439.043c.292.043.658.043.95.085.146 0 .292.043.439.043h.439l1.024.043h.512.439 1.097.512.292l1.316-.043h.512.292c.146 0 .292 0 .366-.043l1.389-.128c.146 0 .219 0 .366-.043h.146c.219-.043.439-.043.658-.085l1.097-.128.804-.128 1.024-.171c.073 0 .146-.043.219-.043l1.17-.256c.073 0 .146-.043.146-.043l1.243-.299c.146-.043.219-.085.366-.085l1.316-.427c.073-.043.146-.043.219-.085s.146-.043.219-.085c.146-.043.219-.085.366-.128.073-.043.219-.085.292-.128.146-.043.219-.085.366-.128.073-.043.219-.085.292-.128s.219-.085.292-.128.219-.085.292-.128.219-.085.292-.128c.073 0 .073-.043.146-.043l.073-.043.439-.256.146-.085c.146-.128.366-.213.512-.342.073-.043.073-.043.073-.085.073-.085.219-.128.292-.213.073-.043.073-.085.146-.128.073-.085.146-.128.219-.213l.073-.043c0-.043.073-.043.073-.085.073-.043.073-.128.146-.171s.073-.085.146-.128.073-.128.146-.171c0-.043.073-.043.073-.085s0-.043.073-.085c0-.043.073-.128.073-.171s.073-.085.073-.171c0-.043.073-.128.073-.171s0-.043.073-.085v-.043c0-.043 0-.128.073-.171v-.171-.171-.085-.085-3.244c.146-.043.146 0 .146.085z"></path><path id="F" d="M375.385 366.847c7.75 2.604 7.75 6.83.073 9.477-7.677 2.604-20.252 2.604-28.001 0s-7.823-6.83-.073-9.477 20.252-2.647 28.001 0z"></path><path id="G" d="M367.928 370.86c1.682.555 1.974 1.451.146 2.348l1.974.64-1.901.64-1.828-.598c-1.316.427-2.924.726-4.021.811l-1.682-.939c1.243-.128 2.705-.384 3.948-.768 1.097-.384 1.389-.768.658-1.025s-1.828-.213-3.656.128c-2.705.47-5.045.598-6.946 0-1.682-.555-1.828-1.409-.219-2.22l-1.828-.598 1.901-.64 1.682.555c1.316-.427 2.486-.598 3.363-.726l1.608.939c-.731.085-2.047.256-3.363.726-1.243.427-1.097.726-.585.896.658.213 1.682.128 3.948-.213 3.144-.555 5.045-.512 6.799.043z"></path><path id="H" d="M431.461 385.844c7.75 2.604 7.75 6.83.073 9.477s-20.252 2.604-28.001 0-7.823-6.83-.073-9.477c7.75-2.604 20.252-2.604 28.001 0z"></path></defs></svg> 